<?xml version="1.0" standalone="no"?>
<!DOCTYPE svg PUBLIC "-//W3C//DTD SVG 1.1//EN" "http://www.w3.org/Graphics/SVG/1.1/DTD/svg11.dtd">
<svg xmlns="http://www.w3.org/2000/svg">
<metadata>Copyright (C) 2012 by original authors @ fontello.com</metadata>
<defs>
<font id="icons" horiz-adv-x="1000" >
<font-face font-family="icons" font-weight="400" font-stretch="normal" units-per-em="1000" ascent="850" descent="-150" />
<missing-glyph horiz-adv-x="1000" />
<glyph glyph-name="plus" unicode="&#xe825;" d="M0 332l0 107q0 22 16 38t38 16l232 0 0 232q0 22 16 38t38 16l107 0q22 0 38-16t16-38l0-232 232 0q22 0 38-16t16-38l0-107q0-22-16-38t-38-16l-232 0 0-232q0-22-16-38t-38-16l-107 0q-22 0-38 16t-16 38l0 232-232 0q-22 0-38 16t-16 38z" horiz-adv-x="785.714" />
<glyph glyph-name="minus" unicode="&#xe823;" d="M0 332l0 107q0 22 16 38t38 16l679 0q22 0 38-16t16-38l0-107q0-22-16-38t-38-16l-679 0q-22 0-38 16t-16 38z" horiz-adv-x="785.714" />
<glyph glyph-name="left" unicode="&#xe87d;" d="M36 314q0 29 21 51l363 363q21 21 51 21 29 0 50-21l42-41q21-21 21-51t-21-51l-163-163 393 0q29 0 47-21t18-50l0-71q0-30-18-50t-47-21l-393 0 163-164q21-20 21-50t-21-50l-42-42q-21-21-50-21t-51 21l-363 364q-21 21-21 50z" horiz-adv-x="857.143" />
<glyph glyph-name="up" unicode="&#xe87f;" d="M30 308q0 30 21 51l363 363q20 21 50 21t51-21l363-363q21-22 21-51 0-28-21-50l-42-42q-21-21-51-21t-50 21l-164 163 0-393q0-29-21-47t-50-18l-71 0q-30 0-50 18t-21 47l0 393-164-163q-20-21-50-21t-50 21l-42 42q-21 21-21 50z" horiz-adv-x="928.571" />
<glyph glyph-name="right" unicode="&#xe87e;" d="M0 279l0 71q0 30 18 50t47 21l393 0-163 164q-21 20-21 50t21 50l42 42q21 21 50 21 30 0 51-21l363-363q21-20 21-50t-21-51l-363-363q-22-21-51-21-28 0-50 21l-42 42q-21 21-21 51t21 51l163 163-393 0q-29 0-47 21t-18 50z" horiz-adv-x="857.143" />
<glyph glyph-name="down" unicode="&#xe87c;" d="M30 386q0 30 21 51l41 42q22 21 51 21 30 0 50-21l164-164 0 393q0 29 21 50t50 21l71 0q29 0 50-21t21-50l0-393 164 164q21 21 50 21t51-21l42-42q21-22 21-51 0-30-21-50l-363-364q-22-21-51-21-30 0-50 21l-363 364q-21 20-21 50z" horiz-adv-x="928.571" />
<glyph glyph-name="home" unicode="&#xe81f;" d="M15 348q1 8 6 12l401 334q18 15 42 15t42-15l136-114 0 109q0 8 5 13t13 5l107 0q8 0 13-5t5-13l0-228 122-102q6-4 6-12t-4-13l-35-41q-4-5-12-6l-2 0q-7 0-12 4l-386 322-386-322q-7-4-13-4-7 1-12 6l-35 41q-4 6-4 13z m128-319l0 268q0 1 0 2t0 2l321 264 321-264q1-1 1-3l0-268q0-15-11-25t-25-11l-214 0 0 214-143 0 0-214-214 0q-15 0-25 11t-11 25z" horiz-adv-x="928.571" />
<glyph glyph-name="pause" unicode="&#xe89f;" d="M0-43l0 786q0 15 11 25t25 11l286 0q15 0 25-11t11-25l0-786q0-15-11-25t-25-11l-286 0q-15 0-25 11t-11 25z m500 0l0 786q0 15 11 25t25 11l286 0q15 0 25-11t11-25l0-786q0-15-11-25t-25-11l-286 0q-15 0-25 11t-11 25z" horiz-adv-x="857.143" />
<glyph glyph-name="fast-fw" unicode="&#xe89a;" d="M0-61l0 821q0 15 7 18t18-7l396-396q4-4 7-11l0 396q0 15 7 18t18-7l396-396q11-11 11-25t-11-25l-396-396q-11-11-18-7t-7 18l0 396q-3-6-7-11l-396-396q-11-11-18-7t-7 18z" horiz-adv-x="928.571" />
<glyph glyph-name="fast-bw" unicode="&#xe899;" d="M68 350q0 15 11 25l396 396q11 11 18 7t7-18l0-396q3 6 7 11l396 396q11 11 18 7t7-18l0-821q0-15-7-18t-18 7l-396 396q-4 5-7 11l0-396q0-15-7-18t-18 7l-396 396q-11 11-11 25z" horiz-adv-x="928.571" />
<glyph glyph-name="to-end" unicode="&#xe89e;" d="M0-61l0 821q0 15 7 18t18-7l396-396q4-4 7-11l0 378q0 15 11 25t25 11l71 0q15 0 25-11t11-25l0-786q0-15-11-25t-25-11l-71 0q-15 0-25 11t-11 25l0 378q-3-6-7-11l-396-396q-11-11-18-7t-7 18z" horiz-adv-x="571.429" />
<glyph glyph-name="to-start" unicode="&#xe89c;" d="M0-43l0 786q0 15 11 25t25 11l71 0q15 0 25-11t11-25l0-378q2 6 7 11l396 396q11 11 18 7t7-18l0-821q0-15-7-18t-18 7l-396 396q-5 5-7 11l0-378q0-15-11-25t-25-11l-71 0q-15 0-25 11t-11 25z" horiz-adv-x="571.429" />
<glyph glyph-name="stop" unicode="&#xe8a0;" d="M0-43l0 786q0 15 11 25t25 11l786 0q15 0 25-11t11-25l0-786q0-15-11-25t-25-11l-786 0q-15 0-25 11t-11 25z" horiz-adv-x="857.143" />
<glyph glyph-name="up-dir" unicode="&#xe872;" d="M0 171q0 15 11 25l250 250q11 11 25 11t25-11l250-250q11-11 11-25t-11-25-25-11l-500 0q-15 0-25 11t-11 25z" horiz-adv-x="571.429" />
<glyph glyph-name="play" unicode="&#xe88d;" d="M0-61l0 821q0 15 9 20t22-2l741-412q13-7 13-17t-13-17l-741-412q-13-7-22-2t-9 20z" horiz-adv-x="785.714" />
<glyph glyph-name="right-dir" unicode="&#xe870;" d="M0 100l0 500q0 15 11 25t25 11 25-11l250-250q11-11 11-25t-11-25l-250-250q-11-11-25-11t-25 11-11 25z" horiz-adv-x="357.143" />
<glyph glyph-name="down-dir" unicode="&#xe873;" d="M0 457q0 15 11 25t25 11l500 0q15 0 25-11t11-25-11-25l-250-250q-11-11-25-11t-25 11l-250 250q-11 11-11 25z" horiz-adv-x="571.429" />
<glyph glyph-name="left-dir" unicode="&#xe871;" d="M36 350q0 15 11 25l250 250q11 11 25 11t25-11 11-25l0-500q0-15-11-25t-25-11-25 11l-250 250q-11 11-11 25z" horiz-adv-x="357.143" />
<glyph glyph-name="cloud" unicode="&#xe88e;" d="M0 243q0 74 40 135t104 91q-1 16-1 24 0 118 84 202t202 84q88 0 160-49t105-128q39 35 93 35 59 0 101-42t42-101q0-42-23-77 72-17 119-75t47-134q0-89-63-151t-151-63l-607 0q-103 0-177 73t-73 177z" horiz-adv-x="1071.429" />
<glyph glyph-name="umbrella" unicode="&#xe8a3;" d="M0 373q0 3 1 4 25 102 96 178t166 114 201 38q78 0 153-22t138-63 109-104 64-140q1-1 1-4 0-7-5-13t-13-5q-6 0-13 6-27 26-52 39t-57 13q-38 0-71-21t-57-54q-4-6-10-16t-8-13q-6-9-16-9t-16 9q-2 3-8 13t-10 16q-24 33-57 54t-71 21-71-21-57-54q-4-6-10-16t-8-13q-6-9-16-9-9 0-16 9-2 3-8 13t-10 16q-24 33-57 54t-71 21q-32 0-57-13t-52-39q-7-6-13-6-7 0-13 5t-5 13z m214-309q0 15 11 25t25 11 25-11 11-25q0-28 22-50t50-22 50 22 22 50l0 324q18 6 36 6t36-6l0-324q0-58-42-100t-100-42-100 42-42 100z m214 660l0 55q0 15 11 25t25 11 25-11 11-25l0-55q-23 1-36 1t-36-1z" horiz-adv-x="928.571" />
<glyph glyph-name="star" unicode="&#xe80b;" d="M0 489q0 21 31 26l280 41 126 254q11 23 27 23t27-23l126-254 280-41q31-5 31-26 0-12-15-27l-203-198 48-279q1-4 1-11 0-12-6-20t-17-8q-11 0-22 7l-251 132-251-132q-12-7-22-7-12 0-18 8t-6 20q0 3 1 11l48 279-203 198q-14 15-14 27z" horiz-adv-x="928.571" />
<glyph glyph-name="star-empty" unicode="&#xe80c;" d="M0 489q0 21 31 26l280 41 126 254q11 23 27 23t27-23l126-254 280-41q31-5 31-26 0-12-15-27l-203-198 48-279q1-4 1-11 0-28-23-28-11 0-22 7l-251 132-251-132q-12-7-22-7-12 0-18 8t-6 20q0 3 1 11l48 279-203 198q-14 15-14 27z m123-33l171-166-41-235 211 111 210-111-40 235 171 166-235 35-105 213-105-213z" horiz-adv-x="928.571" />
<glyph glyph-name="check" unicode="&#xe8b9;" d="M0 154l0 464q0 66 47 114t114 47l464 0q35 0 65-14 8-4 10-13t-5-16l-27-27q-6-6-13-6-2 0-5 1-13 3-25 3l-464 0q-37 0-63-26t-26-63l0-464q0-37 26-63t63-26l464 0q37 0 63 26t26 63l0 142q0 7 5 12l36 36q6 6 13 6 3 0 7-2 11-4 11-16l0-177q0-66-47-114t-114-47l-464 0q-66 0-114 47t-47 114z m143 268q0 18 13 32l61 61q13 13 32 13t32-13l147-147 361 361q13 13 32 13t32-13l61-61q13-13 13-32t-13-32l-454-454q-13-13-32-13t-32 13l-240 240q-13 13-13 32z" horiz-adv-x="928.571" />
<glyph glyph-name="left-hand" unicode="&#xe881;" d="M0 422q0 57 42 100t100 42l209 0q-12 33-12 71 0 68 45 105t115 37q21 0 39-10t31-28 23-35 21-40 18-35q20-31 56-72 1-2 8-9t11-12 11-12 13-13 13-10 13-8 12-3l161 0q30 0 50-21t21-50l0-357q0-30-21-50t-50-21l-161 0q-33 0-124-33-106-39-177-39-79 0-128 43t-49 121l1 3q-34 42-34 99 0 12 2 24-18 32-21 66l-94 0q-59 0-101 42t-42 101z m71-1q0-29 21-50t50-21l185 0q-8-9-14-27t-6-31q0-39 30-66-10-18-10-39t10-41 27-29q-2-13-2-31 0-47 27-70t76-23q47 0 102 18t108 36 93 18l18 0 0 357-18 0q-20 0-37 6t-36 21-27 25-28 31q-1 2-2 3t-2 3-3 3q-40 45-62 81-8 12-21 38-1 2-6 13t-10 20-11 20-12 17-10 6q-40 0-64-17t-25-54q0-24 8-47t18-38 18-31 8-27l-321 0q-28 0-50-21t-22-50z m786-321q0-15 11-25t25-11 25 11 11 25-11 25-25 11-25-11-11-25z" horiz-adv-x="1000" />
<glyph glyph-name="up-hand" unicode="&#xe882;" d="M0 350q0 70 37 115t105 45q38 0 71-12l0 209q0 58 42 100t100 42q59 0 101-42t42-101l0-94q35-2 66-21 12 2 24 2 56 0 99-33 78 1 122-47t45-127q0-74-39-180-33-92-33-124l0-161q0-30-21-50t-50-21l-357 0q-30 0-50 21t-21 50l0 161q0 6-3 12t-8 13-10 13-13 13-12 11-12 11-9 8q-41 36-72 56-12 7-35 18t-40 21-35 23-28 31-10 39z m71 0q0-13 78-50 25-13 36-21 36-22 81-62t59-56q32-39 32-78l0-18 357 0 0 18q0 40 18 93t36 108 18 100q0 105-93 105-15 0-31-3-9 17-29 27t-41 10-39-10q-28 30-66 30-14 0-31-6t-27-14l0 185q0 29-21 50t-50 21q-28 0-50-22t-21-50l0-321q-11 0-27 8t-31 18-38 18-47 8q-37 0-54-25t-17-64z m571-393q0-15 11-25t25-11 25 11 11 25-11 25-25 11-25-11-11-25z" horiz-adv-x="857.143" />
<glyph glyph-name="right-hand" unicode="&#xe880;" d="M0 64l0 357q0 30 21 50t50 21l161 0q6 0 12 3t13 8 13 10 13 13 11 12 11 12 8 9q36 41 56 72 7 12 18 35t21 40 23 35 31 28 39 10q70 0 115-37t45-105q0-38-12-71l209 0q58 0 100-42t42-100q0-59-42-101t-101-42l-94 0q-2-35-21-66 2-12 2-24 0-56-33-99 1-78-47-122t-127-45q-74 0-180 39-92 33-124 33l-161 0q-30 0-50 21t-21 50z m71 36q0-15 11-25t25-11 25 11 11 25-11 25-25 11-25-11-11-25z m143-36l18 0q40 0 93-18t108-36 100-18q105 0 105 93 0 15-3 31 17 9 27 29t10 41-10 39q30 28 30 66 0 14-6 31t-14 27l185 0q29 0 50 21t21 50q0 28-22 50t-50 21l-321 0q0 11 8 27t18 31 18 38 8 47q0 37-25 54t-64 17q-13 0-50-78-13-25-21-36-22-36-62-81t-56-59q-39-32-78-32l-18 0 0-357z" horiz-adv-x="1000" />
<glyph glyph-name="down-hand" unicode="&#xe883;" d="M0 350q0 21 10 39t28 31 35 23 40 21 35 18q31 20 72 56 2 1 9 8t12 11 12 11 13 13 10 13 8 13 3 12l0 161q0 30 21 50t50 21l357 0q30 0 50-21t21-50l0-161q0-33 33-124 39-106 39-177 0-79-43-128t-121-49l-3 1q-42-34-99-34-12 0-24 2-30-17-66-21l0-94q0-59-42-101t-101-42q-57 0-100 42t-42 100l0 209q-30-12-71-12-68 0-105 45t-38 115z m71 0q0-40 17-64t54-25q24 0 47 8t38 18 31 18 27 8l0-321q0-28 21-50t50-22q29 0 50 21t21 50l0 185q26-20 57-20 39 0 66 30 18-10 39-10t41 10 29 27q13-2 31-2 47 0 70 27t23 76q0 47-18 102t-36 108-18 93l0 18-357 0 0-18q0-26-14-51t-29-40-40-37q-5-4-8-7-45-40-81-62-12-8-38-21-2-1-13-6t-20-10-20-11-17-12-6-10z m571 393q0-15 11-25t25-11 25 11 11 25-11 25-25 11-25-11-11-25z" horiz-adv-x="857.143" />
<glyph glyph-name="th-list" unicode="&#xe817;" d="M0 46l0 107q0 22 16 38t38 16l179 0q22 0 38-16t16-38l0-107q0-22-16-38t-38-16l-179 0q-22 0-38 16t-16 38z m0 286l0 107q0 22 16 38t38 16l179 0q22 0 38-16t16-38l0-107q0-22-16-38t-38-16l-179 0q-22 0-38 16t-16 38z m0 286l0 107q0 22 16 38t38 16l179 0q22 0 38-16t16-38l0-107q0-22-16-38t-38-16l-179 0q-22 0-38 16t-16 38z m357-571l0 107q0 22 16 38t38 16l536 0q22 0 38-16t16-38l0-107q0-22-16-38t-38-16l-536 0q-22 0-38 16t-16 38z m0 286l0 107q0 22 16 38t38 16l536 0q22 0 38-16t16-38l0-107q0-22-16-38t-38-16l-536 0q-22 0-38 16t-16 38z m0 286l0 107q0 22 16 38t38 16l536 0q22 0 38-16t16-38l0-107q0-22-16-38t-38-16l-536 0q-22 0-38 16t-16 38z" horiz-adv-x="1000" />
<glyph glyph-name="heart-empty" unicode="&#xe80a;" d="M0 517q0 123 71 192t196 69q35 0 71-12t67-32 53-38 42-38q20 20 42 38t53 38 67 32 71 12q125 0 196-69t71-192q0-123-128-251l-348-335q-10-10-25-10t-25 10l-348 336q-6 4-15 15t-31 37-38 54-30 68-13 77z m71 0q0-94 104-198l324-312 324 312q105 105 105 199 0 45-12 80t-31 55-45 33-52 17-55 4-62-14-62-36-48-40-33-34q-10-12-27-12t-27 12q-13 16-33 34t-48 40-62 36-62 14-55-4-52-17-45-33-31-55-12-80z" horiz-adv-x="1000" />
<glyph glyph-name="heart" unicode="&#xe809;" d="M0 517q0 123 71 192t196 69q35 0 71-12t67-32 53-38 42-38q20 20 42 38t53 38 67 32 71 12q125 0 196-69t71-192q0-123-128-251l-348-335q-10-10-25-10t-25 10l-348 336q-6 4-15 15t-31 37-38 54-30 68-13 77z" horiz-adv-x="1000" />
<glyph glyph-name="music" unicode="&#xe805;" d="M0-43q0 28 19 50t48 34 58 18 54 6q59 0 107-22l0 540q0 17 11 32t27 20l464 143q7 2 16 2 22 0 38-16t16-38l0-625q0-28-19-50t-48-34-58-18-54-6-54 6-58 18-48 34-19 50 19 50 48 34 58 18 54 6q59 0 107-22l0 300-429-132 0-396q0-28-19-50t-48-34-58-18-54-6-54 6-58 18-48 34-19 50z" horiz-adv-x="857.143" />
<glyph glyph-name="th" unicode="&#xe816;" d="M0 46l0 107q0 22 16 38t38 16l179 0q22 0 38-16t16-38l0-107q0-22-16-38t-38-16l-179 0q-22 0-38 16t-16 38z m0 286l0 107q0 22 16 38t38 16l179 0q22 0 38-16t16-38l0-107q0-22-16-38t-38-16l-179 0q-22 0-38 16t-16 38z m0 286l0 107q0 22 16 38t38 16l179 0q22 0 38-16t16-38l0-107q0-22-16-38t-38-16l-179 0q-22 0-38 16t-16 38z m357-571l0 107q0 22 16 38t38 16l179 0q22 0 38-16t16-38l0-107q0-22-16-38t-38-16l-179 0q-22 0-38 16t-16 38z m0 286l0 107q0 22 16 38t38 16l179 0q22 0 38-16t16-38l0-107q0-22-16-38t-38-16l-179 0q-22 0-38 16t-16 38z m0 286l0 107q0 22 16 38t38 16l179 0q22 0 38-16t16-38l0-107q0-22-16-38t-38-16l-179 0q-22 0-38 16t-16 38z m357-571l0 107q0 22 16 38t38 16l179 0q22 0 38-16t16-38l0-107q0-22-16-38t-38-16l-179 0q-22 0-38 16t-16 38z m0 286l0 107q0 22 16 38t38 16l179 0q22 0 38-16t16-38l0-107q0-22-16-38t-38-16l-179 0q-22 0-38 16t-16 38z m0 286l0 107q0 22 16 38t38 16l179 0q22 0 38-16t16-38l0-107q0-22-16-38t-38-16l-179 0q-22 0-38 16t-16 38z" horiz-adv-x="1000" />
<glyph glyph-name="flag" unicode="&#xe831;" d="M36 707q0 30 21 50t50 21 50-21 21-50q0-40-36-61l0-706q0-7-5-13t-13-5l-36 0q-7 0-13 5t-5 13l0 706q-36 21-36 61z m143-536l0 414q0 18 17 31 12 8 44 24 132 67 235 67 60 0 112-16t122-49q21-11 49-11 30 0 66 12t61 26 49 26 30 12q15 0 25-11t11-25l0-426q0-14-7-21t-22-15q-120-65-206-65-34 0-69 12t-61 27-64 27-80 12q-107 0-259-81-9-5-18-5-15 0-25 11t-11 25z" horiz-adv-x="1000" />
<glyph glyph-name="cog" unicode="&#xe854;" d="M0 289l0 124q0 7 4 13t11 7l104 16q8 26 22 51-22 32-60 77-6 7-6 13t5 13q15 20 55 60t53 40q7 0 15-6l77-60q25 13 51 21 9 76 16 104 4 16 20 16l124 0q8 0 14-5t6-12l16-103q27-9 50-21l79 60q5 5 13 5 7 0 14-6 72-66 92-95 4-4 4-12 0-7-4-13-8-12-28-37t-30-39q15-28 23-55l102-16q7-1 12-7t4-13l0-124q0-7-4-13t-11-7l-103-16q-11-30-22-51 20-28 60-77 6-7 6-14t-5-13q-15-21-55-60t-52-40q-7 0-15 5l-77 60q-25-13-51-21-9-76-16-104-4-16-20-16l-124 0q-8 0-14 5t-6 12l-16 103q-27 9-50 21l-79-60q-6-5-14-5t-14 6q-70 64-92 94-4 6-4 13t4 13q8 12 28 37t30 39q-15 28-23 55l-102 15q-7 1-12 7t-4 13z m286 61q0-59 42-101t101-42 101 42 42 101-42 101-101 42-101-42-42-101z" horiz-adv-x="857.143" />
<glyph glyph-name="attention" unicode="&#xe84a;" d="M9 27l429 786q9 17 26 27t36 10 36-10 26-27l429-786q20-35-1-70-9-16-26-26t-35-9l-857 0q-19 0-35 9t-26 26q-21 35-1 70z m411 519l9-255q0-6 6-9t13-4l103 0q8 0 13 4t6 9l10 256q0 7-6 11-7 6-13 6l-123 0q-6 0-13-6-6-4-6-12z m9-464q0-8 5-13t13-5l107 0q7 0 13 5t5 13l0 106q0 8-5 13t-13 5l-107 0q-7 0-13-5t-5-13l0-106z" horiz-adv-x="1000" />
<glyph glyph-name="flash" unicode="&#xe8a2;" d="M1 300l112 460q2 8 9 13t16 5l183 0q11 0 18-7t7-16q0-4-3-10l-95-258 221 55q4 1 7 1 11 0 19-8 10-11 4-25l-301-646q-7-14-23-14-2 0-8 1-9 3-14 11t-3 17l110 451-227-56q-2-1-7-1-10 0-17 6-10 8-7 22z" horiz-adv-x="500" />
<glyph glyph-name="cog-alt" unicode="&#xe855;" d="M0 299l0 103q0 6 4 11t9 6l86 13q6 20 18 42-19 27-50 64-4 6-4 11 0 7 4 11 12 17 46 50t44 33q6 0 12-4l64-50q19 10 43 18 6 60 13 86 4 13 17 13l104 0q6 0 11-4t6-10l13-85q19-6 42-17l66 50q4 4 11 4 6 0 12-4 80-74 80-89 0-5-4-11-7-9-23-30t-25-33q13-27 19-46l85-13q6-1 9-6t4-11l0-103q0-6-4-11t-9-6l-86-13q-6-20-18-42 19-27 50-64 4-6 4-11 0-7-4-11-13-17-46-50t-44-33q-6 0-12 4l-64 50q-21-11-43-17-6-60-13-86-4-13-17-13l-104 0q-6 0-11 4t-6 10l-13 85q-19 6-42 17l-66-50q-4-4-11-4-6 0-12 4-80 74-80 89 0 5 4 11 6 8 23 30t26 34q-13 25-20 46l-85 13q-6 1-9 5t-4 11z m214 51q0-59 42-101t101-42 101 42 42 101-42 101-101 42-101-42-42-101z m429-325l0 78q0 9 83 17 7 16 17 29-28 63-28 77 0 2 2 4 2 1 20 11t33 19 17 9q4 0 26-26t29-38q11 1 17 1t17-1q28 40 51 62l3 1q2 0 69-39 2-2 2-4 0-14-28-77 9-13 17-29 83-8 83-17l0-78q0-9-83-17-7-15-17-29 28-63 28-77 0-2-2-4-68-40-69-40-4 0-26 26t-29 38q-11-1-17-1t-17 1q-8-12-29-38t-26-26q-1 0-69 40-2 2-2 4 0 14 28 77-10 14-17 29-83 8-83 17z m0 571l0 78q0 9 83 17 7 16 17 29-28 63-28 77 0 2 2 4 2 1 20 11t33 19 17 9q4 0 26-26t29-38q11 1 17 1t17-1q28 40 51 62l3 1q2 0 69-39 2-2 2-4 0-14-28-77 9-13 17-29 83-8 83-17l0-78q0-9-83-17-7-15-17-29 28-63 28-77 0-2-2-4-68-40-69-40-4 0-26 26t-29 38q-11-1-17-1t-17 1q-8-12-29-38t-26-26q-1 0-69 40-2 2-2 4 0 14 28 77-10 14-17 29-83 8-83 17z m143-532q0-30 21-50t50-21 50 21 21 50q0 29-21 50t-50 21-50-21-21-50z m0 571q0-30 21-50t50-21 50 21 21 50q0 29-21 50t-50 21-50-21-21-50z" horiz-adv-x="1071.429" />
<glyph glyph-name="scissors" unicode="&#xe8c6;" d="M1 80q4 42 31 82t73 69q74 47 155 47 46 0 84-17 5 7 12 12l68 41-68 41q-7 5-12 12-38-17-84-17-81 0-155 47-46 30-73 69t-31 82q-3 33 9 63t35 52q47 44 124 44 81 0 155-47 46-29 74-69t31-83q2-27-6-54 2-1 7-3l61-37 385 216q8 4 17 4t16-4l71-36q17-9 20-28 2-20-14-31l-283-222 283-222q16-11 14-31-3-20-20-28l-71-36q-7-4-16-4t-17 4l-385 216-61-37q-4-2-7-3 8-27 6-54-4-43-31-82t-74-69q-74-47-155-47-76 0-124 44-50 47-44 116z m93 11q-14-37 12-60 22-20 63-20 56 0 107 33 45 28 59 65t-12 60q-22 20-63 20-56 0-107-33-45-28-59-65z m0 446q14-37 59-65 51-33 107-33 41 0 63 20 26 23 12 60t-59 65q-51 33-107 33-41 0-63-20-26-23-12-60z m281-295l5-4q1-1 4-3 2-2 6-7t6-7l15-15 89 54 54-18 411 321-71 36-429-240 0-63z m0 143l54-32 0 6q0 20 18 31l8 4-44 26-15-15q-2-2-6-6t-7-7q-1-1-2-2t-2-1z m125-71q0 15 11 25t25 11 25-11 11-25-11-25-25-11-25 11-11 25z m68-103l325-182 71 36-290 228-99-77q-1-2-7-4z" horiz-adv-x="1000" />
<glyph glyph-name="flight" unicode="&#xe8a4;" d="M0 260q0 8 5 13l36 36q5 5 13 5t141-38l137 137-321 153q-10 4-10 16 0 8 5 13l36 36q5 5 13 5 2 0 3-1l416-80 134 134q83 83 132 83 18 0 29-11t11-29q0-49-83-132l-134-134 80-416 1-3q0-8-5-13l-36-36q-5-5-13-5-12 0-16 10l-153 321-137-137q38-133 38-141t-5-13l-36-36q-5-5-13-5-10 0-16 9l-86 156-156 86q-9 5-9 16z" horiz-adv-x="785.714" />
<glyph glyph-name="mail" unicode="&#xe807;" d="M0 11l0 607q0 37 26 63t63 26l821 0q37 0 63-26t26-63l0-607q0-37-26-63t-63-26l-821 0q-37 0-63 26t-26 63z m71 0q0-7 5-13t13-5l821 0q7 0 13 5t5 13l0 429q-18-20-39-37-150-115-238-189-28-24-46-37t-48-27-57-14l-1 0q-27 0-57 14t-48 27-46 37q-88 74-238 189-21 17-39 37l0-429z m0 607q0-94 82-158 108-85 224-177 3-3 20-16t26-21 25-18 28-15 24-5l1 0q11 0 24 5t28 15 25 18 26 21 20 16q116 92 224 177 30 24 56 64t26 73l0 14t0 7-2 7-3 5-5 4-8 1l-821 0q-7 0-13-5t-5-13z" horiz-adv-x="1000" />
<glyph glyph-name="edit" unicode="&#xe83e;" d="M0 154l0 464q0 66 47 114t114 47l464 0q35 0 65-14 8-4 10-13t-5-16l-27-27q-8-8-18-4-13 3-25 3l-464 0q-37 0-63-26t-26-63l0-464q0-37 26-63t63-26l464 0q37 0 63 26t26 63l0 70q0 7 5 12l36 36q8 8 20 4t11-16l0-106q0-66-47-114t-114-47l-464 0q-66 0-114 47t-47 114z m357-18l0 161 375 375 161-161-375-375-161 0z m54 107l54 0 0-54 31 0 65 65-85 85-65-65 0-31z m116 134q9-9 18 1l195 195q9 9 1 18t-18-1l-195-195q-9-9-1-18z m241 330l51 51q16 16 38 16t38-16l85-85q16-16 16-38t-16-38l-51-51z" horiz-adv-x="1000" />
<glyph glyph-name="pencil" unicode="&#xe83d;" d="M0-79l0 232 464 464 232-232-464-464-232 0z m71 143l71 0 0-71 60 0 51 51-131 131-51-51 0-60z m95 143q0-12 12-12 6 0 9 4l302 302q4 4 4 9 0 12-12 12-6 0-9-4l-302-302q-4-4-4-9z m334 446l93 92q20 21 50 21t51-21l131-131q21-22 21-51 0-30-21-50l-93-93z" horiz-adv-x="857.143" />
<glyph glyph-name="ok" unicode="&#xe82b;" d="M68 332q0 22 16 38l76 76q16 16 38 16t38-16l164-165 366 367q16 16 38 16t38-16l76-76q16-16 16-38t-16-38l-404-404-76-76q-16-16-38-16t-38 16l-76 76-202 202q-16 16-16 38z" horiz-adv-x="1000" />
<glyph glyph-name="ok-circle" unicode="&#xe82a;" d="M0 350q0 117 57 215t156 156 215 57 215-57 156-156 57-215-57-215-156-156-215-57-215 57-156 156-57 215z m141-11q0-15 10-25l202-202q11-11 25-11 15 0 26 11l303 303q10 10 10 25 0 16-10 26l-51 50q-11 11-25 11t-25-11l-228-227-126 126q-11 11-25 11t-25-11l-51-50q-10-10-10-26z" horiz-adv-x="857.143" />
<glyph glyph-name="cancel" unicode="&#xe828;" d="M61 112q0 22 16 38l164 164-164 164q-16 16-16 38t16 38l76 76q16 16 38 16t38-16l164-164 164 164q16 16 38 16t38-16l76-76q16-16 16-38t-16-38l-164-164 164-164q16-16 16-38t-16-38l-76-76q-16-16-38-16t-38 16l-164 164-164-164q-16-16-38-16t-38 16l-76 76q-16 16-16 38z" horiz-adv-x="785.714" />
<glyph glyph-name="cancel-circle" unicode="&#xe827;" d="M0 350q0 117 57 215t156 156 215 57 215-57 156-156 57-215-57-215-156-156-215-57-215 57-156 156-57 215z m216-126q0-15 11-26l50-50q11-11 26-11t25 11l101 101 101-101q11-11 25-11 15 0 26 11l50 50q11 11 11 26t-11 25l-101 101 101 101q11 11 11 25 0 15-11 26l-50 50q-11 11-26 11t-25-11l-101-101-101 101q-11 11-25 11-15 0-26-11l-50-50q-11-11-11-26t11-25l101-101-101-101q-11-11-11-25z" horiz-adv-x="857.143" />
<glyph glyph-name="asterisk" unicode="&#xe8b6;" d="M68 221q8 29 33 43l148 86-148 86q-26 15-33 43t7 54l36 61q15 26 43 33t54-7l148-85 0 171q0 29 21 50t50 21l71 0q29 0 50-21t21-50l0-171 148 85q26 15 54 7t43-33l36-61q15-26 7-54t-33-43l-148-86 148-86q26-15 33-43t-7-54l-36-61q-15-26-43-33t-54 7l-148 85 0-171q0-29-21-50t-50-21l-71 0q-29 0-50 21t-21 50l0 171-148-85q-26-15-54-7t-43 33l-36 61q-15 26-7 54z" horiz-adv-x="928.571" />
<glyph glyph-name="attention-circle" unicode="&#xe849;" d="M0 350q0 117 57 215t156 156 215 57 215-57 156-156 57-215-57-215-156-156-215-57-215 57-156 156-57 215z m348 271l9-347q0-6 6-10t13-4l103 0q8 0 13 4t6 10l10 347q0 7-6 10-6 4-13 4l-123 0q-8 0-13-4-6-3-6-10z m9-538q0-7 6-13t13-6l107 0q7 0 12 5t5 13l0 106q0 8-5 13t-12 5l-107 0q-7 0-13-6t-6-13l0-106z" horiz-adv-x="857.143" />
<glyph glyph-name="plus-circle" unicode="&#xe824;" d="M0 350q0 117 57 215t156 156 215 57 215-57 156-156 57-215-57-215-156-156-215-57-215 57-156 156-57 215z m179-36q0-15 11-25t25-11l143 0 0-143q0-15 11-25t25-11l71 0q15 0 25 11t11 25l0 143 143 0q15 0 25 11t11 25l0 71q0 15-11 25t-25 11l-143 0 0 143q0 15-11 25t-25 11l-71 0q-15 0-25-11t-11-25l0-143-143 0q-15 0-25-11t-11-25l0-71z" horiz-adv-x="857.143" />
<glyph glyph-name="minus-circle" unicode="&#xe822;" d="M0 350q0 117 57 215t156 156 215 57 215-57 156-156 57-215-57-215-156-156-215-57-215 57-156 156-57 215z m179-36q0-15 11-25t25-11l429 0q15 0 25 11t11 25l0 71q0 15-11 25t-25 11l-429 0q-15 0-25-11t-11-25l0-71z" horiz-adv-x="857.143" />
<glyph glyph-name="forward" unicode="&#xe839;" d="M0 225q0 111 30 186 90 225 488 225l125 0 0 143q0 15 11 25t25 11 25-11l286-286q11-11 11-25t-11-25l-286-286q-11-11-25-11t-25 11-11 25l0 143-125 0q-55 0-98-3t-86-12-74-24-59-39-45-56-27-77-10-101q0-31 3-69 0-3 1-13t1-15q0-8-5-14t-13-6q-9 0-16 9-4 5-7 12t-8 17-6 13q-71 159-71 252z" horiz-adv-x="1000" />
<glyph glyph-name="ccw" unicode="&#xe889;" d="M0 457l0 250q0 23 22 33 22 9 39-8l73-72q60 56 136 87t159 31q87 0 166-34t137-92 92-137 34-166-34-166-92-137-137-92-166-34q-100 0-188 42t-148 119-82 174q-2 8 4 15 5 7 14 7l111 0q13 0 17-13 28-90 103-146t170-56q58 0 111 23t91 61 61 91 23 111-23 111-61 91-91 61-111 23q-55 0-105-20t-89-57l76-77q17-17 8-39t-33-22l-250 0q-15 0-25 11t-11 25z" horiz-adv-x="857.143" />
<glyph glyph-name="cw" unicode="&#xe888;" d="M0 350q0 87 34 166t92 137 137 92 166 34q82 0 159-31t136-87l73 72q16 17 39 8 22-9 22-33l0-250q0-15-11-25t-25-11l-250 0q-23 0-33 22-9 22 8 39l77 77q-83 76-195 76-58 0-111-23t-91-61-61-91-23-111 23-111 61-91 91-61 111-23q94 0 170 56t103 146q4 13 17 13l111 0q9 0 14-7 6-7 4-15-22-98-82-174t-148-119-188-42q-87 0-166 34t-137 92-92 137-34 166z" horiz-adv-x="857.143" />
<glyph glyph-name="resize-vertical" unicode="&#xe865;" d="M36 29q0 15 11 25t25 11l71 0 0 571-71 0q-15 0-25 11t-11 25 11 25l143 143q11 11 25 11t25-11l143-143q11-11 11-25t-11-25-25-11l-71 0 0-571 71 0q15 0 25-11t11-25-11-25l-143-143q-11-11-25-11t-25 11l-143 143q-11 11-11 25z" horiz-adv-x="428.571" />
<glyph glyph-name="resize-horizontal" unicode="&#xe879;" d="M0 350q0 15 11 25l143 143q11 11 25 11t25-11 11-25l0-71 571 0 0 71q0 15 11 25t25 11 25-11l143-143q11-11 11-25t-11-25l-143-143q-11-11-25-11t-25 11-11 25l0 71-571 0 0-71q0-15-11-25t-25-11-25 11l-143 143q-11 11-11 25z" horiz-adv-x="1000" />
<glyph glyph-name="eject" unicode="&#xe898;" d="M1 29l0 143q0 15 11 25t25 11l786 0q15 0 25-11t11-25l0-143q0-15-11-25t-25-11l-786 0q-15 0-25 11t-11 25z m0 257q-3 7 7 18l396 396q11 11 25 11t25-11l396-396q11-11 7-18t-18-7l-821 0q-15 0-18 7z" horiz-adv-x="858.259" />
<glyph glyph-name="doc" unicode="&#xe803;" d="M0-25l0 625q0 39 27 66t66 27l31 0 0 62q0 39 27 66t66 27l687 0q39 0 66-27t27-66l0-781q0-53-36-89t-89-36l-750 0q-53 0-89 36t-36 89z m62 0q0-25 19-44t44-19l750 0q25 0 44 19t19 44l0 781q0 14-9 22t-22 9l-687 0q-14 0-22-9t-9-22l0-750q0-14-9-22t-22-9-22 9-9 22l0 625-31 0q-14 0-22-9t-9-22l0-625z m187 16q0 16 16 16l250 0q16 0 16-16t-16-16l-250 0q-16 0-16 16z m0 94q0 16 16 16l250 0q16 0 16-16t-16-16l-250 0q-16 0-16 16z m0 94q0 16 16 16l250 0q16 0 16-16 0-6-5-11t-11-5l-250 0q-16 0-16 16z m0 94q0 16 16 16l594 0q16 0 16-16t-16-16l-594 0q-16 0-16 16z m0 94q0 16 16 16l594 0q16 0 16-16t-16-16l-594 0q-16 0-16 16z m0 109l0 219q0 14 9 22t22 9l219 0q14 0 22-9t9-22l0-219q0-14-9-22t-22-9l-219 0q-14 0-22 9t-9 22z m62 31l156 0 0 156-156 0 0-156z m281-516q0 16 16 16l250 0q16 0 16-16t-16-16l-250 0q-16 0-16 16z m0 94q0 16 16 16l250 0q16 0 16-16t-16-16l-250 0q-16 0-16 16z m0 94q0 16 16 16l250 0q16 0 16-16 0-6-5-11t-11-5l-250 0q-16 0-16 16z m0 281q0 16 16 16l250 0q16 0 16-16t-16-16l-250 0q-16 0-16 16z m0 94q0 16 16 16l250 0q16 0 16-16t-16-16l-250 0q-16 0-16 16z m0 94q0 16 16 16l250 0q16 0 16-16t-16-16l-250 0q-16 0-16 16z" horiz-adv-x="1000" />
<glyph glyph-name="star-half" unicode="&#xe80d;" d="M0 489q0 21 31 26l280 41 126 254q11 23 27 23l0-747-251-132q-12-7-22-7-12 0-18 8t-6 20q0 3 1 11l48 279-203 198q-14 15-14 27z" horiz-adv-x="500" />
<glyph glyph-name="ok-circle2" unicode="&#xe829;" d="M0 350q0 117 57 215t156 156 215 57 215-57 156-156 57-215-57-215-156-156-215-57-215 57-156 156-57 215z m143 0q0-58 23-111t61-91 91-61 111-23 111 23 91 61 61 91 23 111-23 111-61 91-91 61-111 23-111-23-91-61-61-91-23-111z m51 0q0 15 10 25l57 57q10 10 25 10t25-10l82-82 153 153q10 10 25 10t25-10l57-57q10-10 10-25t-10-25l-179-179-57-57q-10-10-25-10t-25 10l-57 57-107 107q-10 10-10 25z" horiz-adv-x="857.143" />
<glyph glyph-name="cancel-circle2" unicode="&#xe826;" d="M0 350q0 117 57 215t156 156 215 57 215-57 156-156 57-215-57-215-156-156-215-57-215 57-156 156-57 215z m143 0q0-58 23-111t61-91 91-61 111-23 111 23 91 61 61 91 23 111-23 111-61 91-91 61-111 23-111-23-91-61-61-91-23-111z m86-107q0 15 10 25l82 82-82 82q-10 10-10 25t10 25l57 57q10 10 25 10t25-10l82-82 82 82q10 10 25 10t25-10l57-57q10-10 10-25t-10-25l-82-82 82-82q10-10 10-25t-10-25l-57-57q-10-10-25-10t-25 10l-82 82-82-82q-10-10-25-10t-25 10l-57 57q-10 10-10 25z" horiz-adv-x="857.143" />
<glyph glyph-name="help-circle" unicode="&#xe821;" d="M0 350q0 117 57 215t156 156 215 57 215-57 156-156 57-215-57-215-156-156-215-57-215 57-156 156-57 215z m214 94q0-2 1-6t2-6 3-4 5-4 8-1l107 0q8 0 13 5t5 13q0 7 6 15 11 17 28 28t37 11q22 0 46-12t25-32q0-18-15-32t-35-25-42-23-36-35-15-55l0-13t1-6 2-6 3-4 5-4 8-1l107 0q9 0 13 6t4 14 8 18 21 18q33 18 39 22 35 25 55 60t20 76q0 54-33 96t-81 62-101 20-101-20-81-62-33-96l0-13z m143-362q0-7 5-13t13-5l107 0q7 0 13 5t5 13l0 107q0 7-5 13t-13 5l-107 0q-7 0-13-5t-5-13l0-107z" horiz-adv-x="857.143" />
<glyph glyph-name="info-circle" unicode="&#xe820;" d="M0 350q0 117 57 215t156 156 215 57 215-57 156-156 57-215-57-215-156-156-215-57-215 57-156 156-57 215z m286-268q0-8 5-13t13-5l250 0q8 0 13 5t5 13l0 36q0 8-5 13t-13 5l-54 0 0 268q0 8-5 13t-13 5l-179 0q-8 0-13-5t-5-13l0-36q0-8 5-13t13-5l54 0 0-214-54 0q-8 0-13-5t-5-13l0-36z m71 429q0-8 5-13t13-5l107 0q8 0 13 5t5 13l0 107q0 8-5 13t-13 5l-107 0q-8 0-13-5t-5-13l0-107z" horiz-adv-x="857.143" />
<glyph glyph-name="th-large" unicode="&#xe815;" d="M0 64l0 214q0 29 21 50t50 21l286 0q29 0 50-21t21-50l0-214q0-29-21-50t-50-21l-286 0q-29 0-50 21t-21 50z m0 429l0 214q0 29 21 50t50 21l286 0q29 0 50-21t21-50l0-214q0-29-21-50t-50-21l-286 0q-29 0-50 21t-21 50z m500-429l0 214q0 29 21 50t50 21l286 0q29 0 50-21t21-50l0-214q0-29-21-50t-50-21l-286 0q-29 0-50 21t-21 50z m0 429l0 214q0 29 21 50t50 21l286 0q29 0 50-21t21-50l0-214q0-29-21-50t-50-21l-286 0q-29 0-50 21t-21 50z" horiz-adv-x="928.571" />
<glyph glyph-name="eye" unicode="&#xe818;" d="M0 314q0 19 11 39 78 128 210 205t279 78 279-78 210-205q11-20 11-39t-11-39q-78-128-210-206t-279-77-279 78-210 205q-11 20-11 39z m71 0q74-114 186-182t242-68 242 68 186 182q-85 132-213 197 34-58 34-126 0-103-73-177t-177-73-177 73-73 177q0 68 34 126-128-65-213-197z m259 71q0-11 8-19t19-8 19 8 8 19q0 48 34 82t82 34q11 0 19 8t8 19-8 19-19 8q-70 0-120-50t-50-120z" horiz-adv-x="1000" />
<glyph glyph-name="eye-off" unicode="&#xe82c;" d="M0 314q0 21 11 39 85 131 212 207t277 76q50 0 100-9l30 54q6 9 16 9 3 0 10-3t17-9 18-10 18-10 11-6q9-6 9-15 0-4-1-5-59-105-176-316t-176-316l-27-50q-6-9-16-9-7 0-75 39-9 6-9 16 0 7 25 49-80 36-147 97t-116 137q-11 17-11 39z m71 0q93-144 238-209l44 79q-49 35-76 89t-27 113q0 68 34 126-128-65-213-197z m259 71q0-11 8-19t19-8 19 8 8 19q0 48 34 82t82 34q11 0 19 8t8 19-8 19-19 8q-70 0-120-50t-50-120z m170-393l41 74q118 10 219 76t168 171q-64 100-157 164l35 62q53-36 102-85t81-103q11-19 11-39t-11-39q-22-36-61-81-84-96-194-149t-234-53z m89 160l156 280q4-25 4-47 0-78-44-141t-117-92z" horiz-adv-x="1000" />
<glyph glyph-name="tag" unicode="&#xe82d;" d="M0 475l0 232q0 29 21 50t50 21l232 0q30 0 65-15t57-36l399-398q21-22 21-51 0-30-21-50l-274-275q-22-21-51-21-30 0-50 21l-399 400q-21 21-36 56t-15 65z m107 125q0-30 21-50t50-21 50 21 21 50-21 50-50 21-50-21-21-50z" horiz-adv-x="857.143" />
<glyph glyph-name="tags" unicode="&#xe82e;" d="M0 475l0 232q0 29 21 50t50 21l232 0q30 0 65-15t57-36l399-398q21-22 21-51 0-30-21-50l-274-275q-22-21-51-21-30 0-50 21l-399 400q-21 21-36 56t-15 65z m107 125q0-30 21-50t50-21 50 21 21 50-21 50-50 21-50-21-21-50z m286 179l125 0q30 0 65-15t57-36l399-398q21-22 21-51 0-30-21-50l-274-275q-22-21-51-21-20 0-33 8t-30 25l262 262q21 21 21 50t-21 51l-399 398q-21 21-57 36t-65 15z" horiz-adv-x="1071.429" />
<glyph glyph-name="camera-alt" unicode="&#xe814;" d="M0-7l0 714q0 30 21 50t50 21l857 0q30 0 50-21t21-50l0-714q0-30-21-50t-50-21l-857 0q-30 0-50 21t-21 50z m71 0l857 0 0 71-857 0 0-71z m0 571l857 0 0 143-462 0-36-71-359 0 0-71z m71 107l214 0 0 71-214 0 0-71z m143-358q0-89 63-151t151-63 151 63 63 151-63 151-151 63-151-63-63-151z m71 0q0 59 42 101t101 42 101-42 42-101-42-101-101-42-101 42-42 101z m54 1q0-8 5-13t13-5 13 5 5 13q0 22 16 38t38 16q8 0 13 5t5 13-5 13-13 5q-37 0-63-26t-26-63z" horiz-adv-x="1000" />
<glyph glyph-name="export" unicode="&#xe83c;" d="M0 154l0 464q0 66 47 114t114 47l142 0q7 0 13-5t5-13q0-15-15-18-43-15-74-33-6-2-9-2l-62 0q-37 0-63-26t-26-63l0-464q0-37 26-63t63-26l464 0q37 0 63 26t26 63l0 119q0 11 10 16 16 7 30 21 9 9 20 4 12-5 12-16l0-145q0-66-47-114t-114-47l-464 0q-66 0-114 47t-47 114z m143 232q0 27 2 51t8 50 16 49 26 45 38 41 53 34 69 27 89 17 110 6l89 0 0 107q0 23 22 33 7 3 14 3 15 0 25-11l214-214q11-11 11-25t-11-25l-214-214q-10-11-25-11-7 0-14 3-22 9-22 33l0 107-89 0q-180 0-244-73-66-76-41-264 2-13-11-19-4-1-7-1-9 0-15 7-6 8-12 17t-22 38-28 56-21 64-10 68z" horiz-adv-x="928.571" />
<glyph glyph-name="retweet" unicode="&#xe851;" d="M0 386q0 13 8 23l179 214q11 12 27 12t27-12l179-214q8-9 8-23 0-15-11-25t-25-11l-107 0 0-214 321 0q9 0 14-6l89-107q4-6 4-12 0-7-5-13t-13-5l-536 0q-4 0-8 1t-5 4-3 4-2 6-1 6l0 335-107 0q-15 0-25 11t-11 25z m357 232q0 7 5 13t13 5l536 0q4 0 8-1t5-4 3-4 2-6 1-6l0-335 107 0q15 0 25-11t11-25q0-13-8-23l-179-214q-11-13-27-13t-27 13l-179 214q-8 9-8 23 0 15 11 25t25 11l107 0 0 214-321 0q-9 0-14 7l-89 107q-4 5-4 11z" horiz-adv-x="1071.429" />
<glyph glyph-name="comment" unicode="&#xe850;" d="M0 350q0 73 40 139t107 114 160 76 194 28q136 0 251-48t182-130 67-179-67-179-182-130-251-48q-39 0-81 4-110-98-257-135-27-8-64-12-9-1-17 5t-10 16l0 1q-2 2 0 7t1 6 3 5l3 5t4 5 4 5q4 4 17 19t19 21 17 22 18 28 15 33 15 42q-88 50-138 123t-50 157z" horiz-adv-x="1000" />
<glyph glyph-name="chat" unicode="&#xe84e;" d="M0 421q0 78 52 143t143 104 197 38 197-38 143-104 52-143-52-143-143-104-197-38q-48 0-98 9-69-49-155-71-20-5-48-9l-2 0q-6 0-11 4t-6 12q-1 2-1 4t0 4 1 3l1 3t2 3 2 3 3 3 2 3q3 3 13 14t15 16 13 16 14 21 11 25q-69 40-109 99t-40 125z m344-355q32-2 49-2 90 0 172 25t147 72q70 51 107 118t37 142q0 43-13 85 72-40 114-99t42-128q0-67-40-125t-109-98q6-13 11-25t14-21 13-16 15-16 13-14q1-1 2-3t3-3 2-3 2-3l1-3t1-3 0-4-1-4q-2-8-7-12t-12-4q-28 4-48 9-86 22-155 71-50-9-98-9-151 0-263 74z" horiz-adv-x="1000" />
<glyph glyph-name="location" unicode="&#xe848;" d="M0 493q0 118 84 202t202 84 202-84 84-202q0-61-18-100l-203-432q-9-18-27-29t-38-11-38 11-26 29l-204 432q-18 39-18 100z m143 0q0-59 42-101t101-42 101 42 42 101-42 101-101 42-101-42-42-101z" horiz-adv-x="571.429" />
<glyph glyph-name="trash" unicode="&#xe847;" d="M0 582l0 36q0 8 5 13t13 5l172 0 39 93q8 21 30 35t44 15l179 0q22 0 44-15t30-35l39-93 172 0q8 0 13-5t5-13l0-36q0-8-5-13t-13-5l-54 0 0-529q0-46-26-80t-63-34l-464 0q-37 0-63 33t-26 79l0 531-54 0q-8 0-13 5t-5 13z m143-547q0-12 4-23t8-15 6-5l464 0q2 0 6 5t8 15 4 23l0 529-500 0 0-529z m71 83l0 321q0 8 5 13t13 5l36 0q8 0 13-5t5-13l0-321q0-8-5-13t-13-5l-36 0q-8 0-13 5t-5 13z m54 518l250 0-27 65q-4 5-9 6l-177 0q-6-1-9-6z m89-518l0 321q0 8 5 13t13 5l36 0q8 0 13-5t5-13l0-321q0-8-5-13t-13-5l-36 0q-8 0-13 5t-5 13z m143 0l0 321q0 8 5 13t13 5l36 0q8 0 13-5t5-13l0-321q0-8-5-13t-13-5l-36 0q-8 0-13 5t-5 13z" horiz-adv-x="785.714" />
<glyph glyph-name="article-alt" unicode="&#xe8fb;" d="M133 722l826 0 0-631c0-59-51-111-105-111l-718 0c-89 0-136 46-136 159l0 461 133 0 0 123z m0-584l0 394-65 0 0-394c0-58 14-85 31-85 21 0 34 28 34 85z m759-48l0 564-691 0 0-516c0-40-8-69-19-91l673 0c23 0 38 26 38 44z m-425 135l0-23-159 0 0 23 159 0z m0-71l0-23-159 0 0 23 159 0z m63 31l0 254 266 0 0-254-266 0z m-63 180l0-23-159 0 0 23 159 0z m0-71l0-23-159 0 0 23 159 0z m0 145l0-23-159 0 0 23 159 0z m-135 73l0 44 416 0 0-44-416 0z" horiz-adv-x="959" />
<glyph glyph-name="basket" unicode="&#xe857;" d="M0 671q0 15 11 25t25 11l143 0q9 0 16-4t11-9 7-14 4-15 3-16 3-14l670 0q15 0 25-11t11-25l0-286q0-13-9-24t-23-12l-583-68q1-4 3-12t3-15 1-12q0-9-13-36l513 0q15 0 25-11t11-25-11-25-25-11l-36 0q30 0 50-21t21-50-21-50-50-21-50 21-21 50 21 50 50 21l-500 0q30 0 50-21t21-50-21-50-50-21-50 21-21 50 21 50 50 21l-36 0q-15 0-25 11t-11 25q0 8 6 22t16 33 11 21l-99 459-114 0q-15 0-25 11t-11 25z" horiz-adv-x="928.571" />
<glyph glyph-name="login" unicode="&#xe859;" d="M0 243l0 214q0 15 11 25t25 11l250 0 0 161q0 15 11 25t25 11 25-11l304-304q11-11 11-25t-11-25l-304-304q-11-11-25-11t-25 11-11 25l0 161-250 0q-15 0-25 11t-11 25z m499-206q0 6 2 13t6 11 11 4l179 0q37 0 63 26t26 63l0 393q0 37-26 63t-63 26l-174 0t-6 1-6 2-4 3-4 5-1 8q0 2-1 11t0 15 2 13 6 11 11 4l179 0q66 0 114-47t47-114l0-393q0-66-47-114t-114-47l-179 0q-7 0-13 5t-5 13q0 2-1 11t0 15z" horiz-adv-x="857.143" />
<glyph glyph-name="logout" unicode="&#xe85a;" d="M0 154l0 393q0 66 47 114t114 47l179 0q7 0 13-5t5-13q0-2 1-11t0-15-2-13-6-11-11-4l-179 0q-37 0-63-26t-26-63l0-393q0-37 26-63t63-26l174 0t6-1 6-2 4-3 4-5 1-8q0-2 1-11t0-15-2-13-6-11-11-4l-179 0q-66 0-114 47t-47 114z m214 89l0 214q0 15 11 25t25 11l250 0 0 161q0 15 11 25t25 11 25-11l304-304q11-11 11-25t-11-25l-304-304q-11-11-25-11t-25 11-11 25l0 161-250 0q-15 0-25 11t-11 25z" horiz-adv-x="928.571" />
<glyph glyph-name="resize-full" unicode="&#xe862;" d="M0-43l0 250q0 15 11 25t25 11 25-11l80-80 185 185q6 6 13 6t13-6l64-64q6-6 6-13t-6-13l-185-185 80-80q11-11 11-25t-11-25-25-11l-250 0q-15 0-25 11t-11 25z m436 482q0 7 6 13l185 185-80 80q-11 11-11 25t11 25 25 11l250 0q15 0 25-11t11-25l0-250q0-15-11-25t-25-11-25 11l-80 80-185-185q-6-6-13-6t-13 6l-64 64q-6 6-6 13z" horiz-adv-x="857.143" />
<glyph glyph-name="resize-small" unicode="&#xe864;" d="M7 11q0 7 6 13l185 185-80 80q-11 11-11 25t11 25 25 11l250 0q15 0 25-11t11-25l0-250q0-15-11-25t-25-11-25 11l-80 80-185-185q-6-6-13-6t-13 6l-64 64q-6 6-6 13z m421 375l0 250q0 15 11 25t25 11 25-11l80-80 185 185q6 6 13 6t13-6l64-64q6-6 6-13t-6-13l-185-185 80-80q11-11 11-25t-11-25-25-11l-250 0q-15 0-25 11t-11 25z" horiz-adv-x="857.143" />
<glyph glyph-name="zoom-in" unicode="&#xe877;" d="M0 386q0 80 31 153t84 126 126 84 153 31 153-31 126-84 84-126 31-153q0-123-69-223l191-191q21-21 21-50t-21-50-50-21q-30 0-50 21l-191 191q-100-69-223-69-80 0-153 31t-126 84-84 126-31 153z m143 0q0-103 73-177t177-73 177 73 73 177-73 177-177 73-177-73-73-177z m71-18l0 36q0 7 5 13t13 5l125 0 0 125q0 7 5 13t13 5l36 0q7 0 13-5t5-13l0-125 125 0q7 0 13-5t5-13l0-36q0-7-5-13t-13-5l-125 0 0-125q0-7-5-13t-13-5l-36 0q-7 0-13 5t-5 13l0 125-125 0q-7 0-13 5t-5 13z" horiz-adv-x="928.571" />
<glyph glyph-name="zoom-out" unicode="&#xe876;" d="M0 386q0 80 31 153t84 126 126 84 153 31 153-31 126-84 84-126 31-153q0-123-69-223l191-191q21-21 21-50t-21-50-50-21q-30 0-50 21l-191 191q-100-69-223-69-80 0-153 31t-126 84-84 126-31 153z m143 0q0-103 73-177t177-73 177 73 73 177-73 177-177 73-177-73-73-177z m71-18l0 36q0 7 5 13t13 5l321 0q7 0 13-5t5-13l0-36q0-7-5-13t-13-5l-321 0q-7 0-13 5t-5 13z" horiz-adv-x="928.571" />
<glyph glyph-name="down-circle2" unicode="&#xe875;" d="M0 350q0 117 57 215t156 156 215 57 215-57 156-156 57-215-57-215-156-156-215-57-215 57-156 156-57 215z m143 0q0-58 23-111t61-91 91-61 111-23 111 23 91 61 61 91 23 111-23 111-61 91-91 61-111 23-111-23-91-61-61-91-23-111z m89-18q0 7 5 13t13 5l107 0 0 196q0 7 5 13t13 5l107 0q7 0 13-5t5-13l0-196 107 0q8 0 13-5t5-13q0-7-6-13l-178-178q-5-5-13-5t-13 5l-179 179q-5 5-5 13z" horiz-adv-x="857.143" />
<glyph glyph-name="up-circle2" unicode="&#xe874;" d="M0 350q0 117 57 215t156 156 215 57 215-57 156-156 57-215-57-215-156-156-215-57-215 57-156 156-57 215z m143 0q0-58 23-111t61-91 91-61 111-23 111 23 91 61 61 91 23 111-23 111-61 91-91 61-111 23-111-23-91-61-61-91-23-111z m89 18q0 7 6 13l178 178q5 5 13 5t13-5l179-179q5-5 5-13 0-7-5-13t-13-5l-107 0 0-196q0-7-5-13t-13-5l-107 0q-7 0-13 5t-5 13l0 196-107 0q-8 0-13 5t-5 13z" horiz-adv-x="857.143" />
<glyph glyph-name="down-open" unicode="&#xe86f;" d="M30 457q0 30 21 51l41 42q22 21 51 21 30 0 50-21l271-271 271 271q21 21 50 21t51-21l42-42q21-22 21-51 0-30-21-50l-363-363q-21-21-51-21t-50 21l-363 363q-21 20-21 50z" horiz-adv-x="928.571" />
<glyph glyph-name="left-open" unicode="&#xe86e;" d="M30 386q0 30 21 50l364 363q21 21 50 21t50-21l42-42q21-21 21-50t-21-50l-271-271 271-271q21-21 21-51t-21-50l-42-42q-21-21-50-21t-50 21l-364 363q-21 21-21 50z" horiz-adv-x="642.857" />
<glyph glyph-name="right-open" unicode="&#xe86d;" d="M65 64q0 30 21 50l271 271-271 271q-21 22-21 51 0 30 21 50l42 42q20 21 50 21t50-21l364-363q21-21 21-50t-21-51l-364-363q-21-21-50-21t-50 21l-42 42q-21 22-21 51z" horiz-adv-x="642.857" />
<glyph glyph-name="up-open" unicode="&#xe86c;" d="M30 171q0 30 21 51l363 363q21 21 50 21t51-21l363-363q21-21 21-51t-21-50l-42-42q-21-21-51-21t-50 21l-271 271-271-271q-20-21-50-21t-50 21l-42 42q-21 20-21 50z" horiz-adv-x="928.571" />
<glyph glyph-name="arrows-cw" unicode="&#xe88a;" d="M0-7l0 250q0 15 11 25t25 11l250 0q15 0 25-11t11-25-11-25l-76-76q40-37 90-57t104-20q75 0 140 36t104 100q6 9 30 65 4 13 17 13l107 0q7 0 13-5t5-13q0-3-1-4-36-150-150-242t-267-93q-81 0-158 31t-136 88l-72-72q-11-11-25-11t-25 11-11 25z m10 446l0 4q36 150 151 242t268 93q81 0 158-31t137-87l73 72q11 11 25 11t25-11 11-25l0-250q0-15-11-25t-25-11l-250 0q-15 0-25 11t-11 25 11 25l77 77q-83 76-195 76-75 0-140-36t-104-100q-6-9-30-65-4-13-17-13l-111 0q-7 0-13 5t-5 13z" horiz-adv-x="857.143" />
<glyph glyph-name="play-circle2" unicode="&#xe8a1;" d="M0 350q0 117 57 215t156 156 215 57 215-57 156-156 57-215-57-215-156-156-215-57-215 57-156 156-57 215z m143 0q0-58 23-111t61-91 91-61 111-23 111 23 91 61 61 91 23 111-23 111-61 91-91 61-111 23-111-23-91-61-61-91-23-111z m143-161l0 321q0 21 18 31 17 11 35 1l286-161q18-11 18-31t-18-31l-286-161q-8-4-17-4t-18 5q-18 10-18 31z" horiz-adv-x="857.143" />
<glyph glyph-name="to-end-alt" unicode="&#xe89d;" d="M0-61l0 821q0 15 7 18t18-7l396-396q4-4 7-11l0 396q0 15 7 18t18-7l396-396q4-4 7-11l0 378q0 15 11 25t25 11l71 0q15 0 25-11t11-25l0-786q0-15-11-25t-25-11l-71 0q-15 0-25 11t-11 25l0 378q-3-6-7-11l-396-396q-11-11-18-7t-7 18l0 396q-3-6-7-11l-396-396q-11-11-18-7t-7 18z" horiz-adv-x="1000" />
<glyph glyph-name="to-start-alt" unicode="&#xe89b;" d="M0-43l0 786q0 15 11 25t25 11l71 0q15 0 25-11t11-25l0-378q2 6 7 11l396 396q11 11 18 7t7-18l0-396q2 6 7 11l396 396q11 11 18 7t7-18l0-821q0-15-7-18t-18 7l-396 396q-5 5-7 11l0-396q0-15-7-18t-18 7l-396 396q-5 5-7 11l0-378q0-15-11-25t-25-11l-71 0q-15 0-25 11t-11 25z" horiz-adv-x="1000" />
<glyph glyph-name="inbox" unicode="&#xe890;" d="M0 29l0 269q0 35 14 69l133 308q6 14 20 23t29 9l464 0q15 0 29-9t20-23l133-308q14-34 14-69l0-269q0-15-11-25t-25-11l-786 0q-15 0-25 11t-11 25z m110 286l176 0 53-107 179 0 53 107 176 0q-1 2-1 4t-1 4l-118 277-395 0-118-277q-1-1-1-4t-1-4z" horiz-adv-x="857.143" />
<glyph glyph-name="font" unicode="&#xe8a7;" d="M0-79l1 44q12 4 45 10 50 9 61 17 11 9 27 38l132 344 156 404 71 0 6-12 114-268q57-135 69-166 22-57 54-131 15-32 36-92 13-37 36-83 12-27 20-32 12-11 39-13 26-3 57-15 3-22 3-32 0-8-1-15-45 0-107 4-52 4-105 4-44 0-75-1l-112-6-32-1q0 25 2 44l73 16q31 7 38 13 7 7 7 15t-3 18l-26 64-51 127-251 1q-16-36-58-153-13-36-13-47 0-17 9-24 15-12 57-18 2 0 8-1t17-3 23-3q1-16 1-32 0-9-1-15-37 0-195 11l-27-4q-45-8-93-8l-12 0z m310 365q41-1 86-1t66-1 29 0l16 1q-18 53-51 134-30 74-51 118z" horiz-adv-x="928.571" />
<glyph glyph-name="bold" unicode="&#xe8a8;" d="M0-79l1 52q25 5 38 7 43 7 69 17 9 15 12 28 5 37 5 108l-1 277q-3 143-5 225-1 49-6 61-1 2-7 7-10 7-39 8-17 1-64 7l-2 46 145 3 212 7 25 1q3 0 8 0t8 0q1 0 12 0t23 0l41 0q49 0 107-15 24-7 54-22 32-16 57-42t36-58 12-68q0-39-18-71t-53-59q-15-11-84-43 99-23 149-81 51-59 51-132 0-42-16-90-12-35-40-65-37-40-78-60t-113-33q-46-8-110-6l-110 2q-47 1-166-6-18-2-152-6z m297 792q0-25 1-43 4-68 3-156l-1-55q0-24 1-43 24-4 61-4 98 0 147 36t50 125q0 62-47 104t-142 42q-29 0-73-7z m4-537l2-151q0-8 7-25 42-18 78-18 73 0 121 23t68 63q21 39 21 101 0 64-23 100-32 52-79 70-45 18-138 18-41 0-56-6l0-80z" horiz-adv-x="785.714" />
<glyph glyph-name="italic" unicode="&#xe8a9;" d="M0-77l9 47q2 1 43 11 42 11 65 22 16 21 23 56l15 78 31 150 7 36q4 25 9 47t9 37 7 26 5 17 2 6l16 88 9 35 12 75 4 28 0 21q-23 12-80 16-16 1-21 2l11 57 177-8q22-1 41-1 37 0 119 5 18 1 38 3t20 1q-1-11-3-21-4-16-7-28-31-11-61-17-36-9-56-17-7-17-13-49-5-25-7-46-25-111-37-171l-34-174-21-88-24-131-7-25q-1-4 1-15 36-8 66-12 20-3 37-6-1-16-4-32-4-17-5-23-10 0-13-1-13-1-23-1-5 0-16 2t-81 9l-110 1q-23 1-97-6-41-4-55-5z" horiz-adv-x="571.429" />
<glyph glyph-name="text-height" unicode="&#xe8aa;" d="M0 564l0 214 45 1 30-15q11-3 118-3l73 0 11 2 64 1 120-1 163 0 19-1q8-1 16 4t12 9l4 4 23 1q8 0 16-1l0-58t1-73l1-56-1-32q0-18-2-28-22-8-38-10-14 24-30 71-4 13-9 35t-6 37-3 16q-7 8-15 11-4 1-24 1t-58-1-62-1q-19 0-37-3-6-54-4-76l1-85 0-185 2-200-1-82q-1-26 6-47 27-14 50-18 1 0 10-3t25-7 24-7q17-4 28-10 3-25 3-28 0-6-2-16-8-1-19-1-61 0-104 6-40 4-133 4-49 0-130-8-27-2-39-2-1 12-1 15l-1 15 0 5q12 18 44 27 78 21 89 28 5 12 7 31 4 107 3 242l-3 239q-1 35 0 66t0 57-1 32-3 8q-3 3-8 3-21 3-83 3-24 0-56-8t-41-14q-7-5-12-18t-12-42-13-47q-3-11-11-18t-11-7q-25 15-31 25z m789-510q5 10 23 10l45 0 0 571-45 0q-18 0-23 10t6 25l70 90q11 15 27 15t27-15l70-90q11-15 6-25t-23-10l-45 0 0-571 45 0q18 0 23-10t-6-25l-70-90q-11-15-27-15t-27 15l-70 90q-11 15-6 25z" horiz-adv-x="1000" />
<glyph glyph-name="text-width" unicode="&#xe8ab;" d="M0 564l0 214 45 1 30-15q11-3 118-3l73 0 11 2 64 1 249-1 177 0 19-1q8-1 16 4t12 9l4 4 23 1q8 0 16-1l0-58t1-73l1-56-1-32q0-18-2-28-22-8-38-10-14 24-30 71-4 13-9 35t-6 37-3 16q-7 8-15 11-4 1-33 1t-77-1-71-1q-52 0-71-3-6-54-4-76l1-56 2-200-1-82q-1-26 6-47 27-14 50-18 1 0 10-3t25-7 24-7q17-4 28-10 3-25 3-28 0-6-2-16-8-1-19-1-61 0-104 6-40 4-133 4-46 0-130-7-25-3-39-3-1 12-1 15l-1 15 0 5q12 18 44 27 78 21 89 28 5 12 7 31 3 76 3 242l-3 25q0 148-1 155-1 6-3 8-3 3-8 3-21 3-83 3-28 0-94-8t-74-13q-7-5-12-18t-12-42-13-47q-3-11-11-18t-11-7q-25 15-31 25z m3-535q0 16 15 27l90 70q15 11 25 6t10-23l0-45 571 0 0 45q0 18 10 23t25-6l90-70q15-11 15-27t-15-27l-90-70q-15-11-25-6t-10 23l0 45-571 0 0-45q0-18-10-23t-25 6l-90 70q-15 11-15 27z" horiz-adv-x="857.143" />
<glyph glyph-name="align-left" unicode="&#xe8ac;" d="M0 29l0 71q0 15 11 25t25 11l929 0q15 0 25-11t11-25l0-71q0-15-11-25t-25-11l-929 0q-15 0-25 11t-11 25z m0 214l0 71q0 15 11 25t25 11l714 0q15 0 25-11t11-25l0-71q0-15-11-25t-25-11l-714 0q-15 0-25 11t-11 25z m0 214l0 71q0 15 11 25t25 11l857 0q15 0 25-11t11-25l0-71q0-15-11-25t-25-11l-857 0q-15 0-25 11t-11 25z m0 214l0 71q0 15 11 25t25 11l643 0q15 0 25-11t11-25l0-71q0-15-11-25t-25-11l-643 0q-15 0-25 11t-11 25z" horiz-adv-x="1000" />
<glyph glyph-name="align-center" unicode="&#xe8ad;" d="M0 29l0 71q0 15 11 25t25 11l929 0q15 0 25-11t11-25l0-71q0-15-11-25t-25-11l-929 0q-15 0-25 11t-11 25z m71 429l0 71q0 15 11 25t25 11l786 0q15 0 25-11t11-25l0-71q0-15-11-25t-25-11l-786 0q-15 0-25 11t-11 25z m143-214l0 71q0 15 11 25t25 11l500 0q15 0 25-11t11-25l0-71q0-15-11-25t-25-11l-500 0q-15 0-25 11t-11 25z m71 429l0 71q0 15 11 25t25 11l357 0q15 0 25-11t11-25l0-71q0-15-11-25t-25-11l-357 0q-15 0-25 11t-11 25z" horiz-adv-x="1000" />
<glyph glyph-name="align-right" unicode="&#xe8ae;" d="M0 29l0 71q0 15 11 25t25 11l929 0q15 0 25-11t11-25l0-71q0-15-11-25t-25-11l-929 0q-15 0-25 11t-11 25z m71 429l0 71q0 15 11 25t25 11l857 0q15 0 25-11t11-25l0-71q0-15-11-25t-25-11l-857 0q-15 0-25 11t-11 25z m143-214l0 71q0 15 11 25t25 11l714 0q15 0 25-11t11-25l0-71q0-15-11-25t-25-11l-714 0q-15 0-25 11t-11 25z m71 429l0 71q0 15 11 25t25 11l643 0q15 0 25-11t11-25l0-71q0-15-11-25t-25-11l-643 0q-15 0-25 11t-11 25z" horiz-adv-x="1000" />
<glyph glyph-name="align-justify" unicode="&#xe8af;" d="M0 29l0 71q0 15 11 25t25 11l929 0q15 0 25-11t11-25l0-71q0-15-11-25t-25-11l-929 0q-15 0-25 11t-11 25z m0 214l0 71q0 15 11 25t25 11l929 0q15 0 25-11t11-25l0-71q0-15-11-25t-25-11l-929 0q-15 0-25 11t-11 25z m0 214l0 71q0 15 11 25t25 11l929 0q15 0 25-11t11-25l0-71q0-15-11-25t-25-11l-929 0q-15 0-25 11t-11 25z m0 214l0 71q0 15 11 25t25 11l929 0q15 0 25-11t11-25l0-71q0-15-11-25t-25-11l-929 0q-15 0-25 11t-11 25z" horiz-adv-x="1000" />
<glyph glyph-name="list" unicode="&#xe8b0;" d="M0 11l0 107q0 7 5 13t13 5l107 0q7 0 13-5t5-13l0-107q0-7-5-13t-13-5l-107 0q-7 0-13 5t-5 13z m0 214l0 107q0 7 5 13t13 5l107 0q7 0 13-5t5-13l0-107q0-7-5-13t-13-5l-107 0q-7 0-13 5t-5 13z m0 214l0 107q0 7 5 13t13 5l107 0q7 0 13-5t5-13l0-107q0-7-5-13t-13-5l-107 0q-7 0-13 5t-5 13z m0 214l0 107q0 7 5 13t13 5l107 0q7 0 13-5t5-13l0-107q0-7-5-13t-13-5l-107 0q-7 0-13 5t-5 13z m214-643l0 107q0 7 5 13t13 5l750 0q7 0 13-5t5-13l0-107q0-7-5-13t-13-5l-750 0q-7 0-13 5t-5 13z m0 214l0 107q0 7 5 13t13 5l750 0q7 0 13-5t5-13l0-107q0-7-5-13t-13-5l-750 0q-7 0-13 5t-5 13z m0 214l0 107q0 7 5 13t13 5l750 0q7 0 13-5t5-13l0-107q0-7-5-13t-13-5l-750 0q-7 0-13 5t-5 13z m0 214l0 107q0 7 5 13t13 5l750 0q7 0 13-5t5-13l0-107q0-7-5-13t-13-5l-750 0q-7 0-13 5t-5 13z" horiz-adv-x="1000" />
<glyph glyph-name="indent-left" unicode="&#xe8b1;" d="M0 11l0 107q0 7 5 13t13 5l964 0q7 0 13-5t5-13l0-107q0-7-5-13t-13-5l-964 0q-7 0-13 5t-5 13z m0 643l0 107q0 7 5 13t13 5l964 0q7 0 13-5t5-13l0-107q0-7-5-13t-13-5l-964 0q-7 0-13 5t-5 13z m18-268q0 8 5 13l161 161q5 5 13 5 7 0 13-5t5-13l0-321q0-7-5-13t-13-5q-8 0-13 5l-161 161q-5 5-5 13z m339-161l0 107q0 7 5 13t13 5l607 0q7 0 13-5t5-13l0-107q0-7-5-13t-13-5l-607 0q-7 0-13 5t-5 13z m0 214l0 107q0 7 5 13t13 5l607 0q7 0 13-5t5-13l0-107q0-7-5-13t-13-5l-607 0q-7 0-13 5t-5 13z" horiz-adv-x="1000" />
<glyph glyph-name="indent-right" unicode="&#xe8b2;" d="M0 11l0 107q0 7 5 13t13 5l964 0q7 0 13-5t5-13l0-107q0-7-5-13t-13-5l-964 0q-7 0-13 5t-5 13z m0 214l0 321q0 7 5 13t13 5q8 0 13-5l161-161q5-5 5-13t-5-13l-161-161q-5-5-13-5-7 0-13 5t-5 13z m0 429l0 107q0 7 5 13t13 5l964 0q7 0 13-5t5-13l0-107q0-7-5-13t-13-5l-964 0q-7 0-13 5t-5 13z m357-429l0 107q0 7 5 13t13 5l607 0q7 0 13-5t5-13l0-107q0-7-5-13t-13-5l-607 0q-7 0-13 5t-5 13z m0 214l0 107q0 7 5 13t13 5l607 0q7 0 13-5t5-13l0-107q0-7-5-13t-13-5l-607 0q-7 0-13 5t-5 13z" horiz-adv-x="1000" />
<glyph glyph-name="off" unicode="&#xe8c2;" d="M0 350q0 102 45 191t126 151q24 18 53 14t47-28q18-23 14-53t-28-47q-55-41-85-101t-30-127q0-58 23-111t61-91 91-61 111-23 111 23 91 61 61 91 23 111q0 68-30 127t-85 101q-23 18-28 47t14 53q17 24 47 28t53-14q81-61 126-151t45-191q0-87-34-166t-92-137-137-92-166-34-166 34-137 92-92 137-34 166z m357 71l0 357q0 29 21 50t50 21 50-21 21-50l0-357q0-29-21-50t-50-21-50 21-21 50z" horiz-adv-x="857.143" />
<glyph glyph-name="road" unicode="&#xe8c1;" d="M28 34q0 30 15 65l233 583q4 11 15 18t21 8l189 0q-7 0-13-5t-6-13l-8-107q-1-8 4-13t12-5l93 0q7 0 12 5t4 13l-8 107q-1 7-6 13t-13 5l189 0q11 0 21-8t15-18l233-583q15-35 15-65 0-41-26-41l-393 0q7 0 12 5t4 13l-11 143q-1 7-6 13t-13 5l-152 0q-7 0-13-5t-6-13l-11-143q-1-7 4-13t12-5l-393 0q-26 0-26 41z m424 261q-1-7 4-11t12-4l136 0q7 0 12 4t4 11l0 2-13 179q-1 7-6 13t-13 5l-104 0q-7 0-13-5t-6-13l-13-179 0-2z" horiz-adv-x="1071.429" />
<glyph glyph-name="list-alt" unicode="&#xe8c0;" d="M0 82l0 607q0 37 26 63t63 26l821 0q37 0 63-26t26-63l0-607q0-37-26-63t-63-26l-821 0q-37 0-63 26t-26 63z m71 0q0-7 5-13t13-5l821 0q7 0 13 5t5 13l0 464q0 7-5 13t-13 5l-821 0q-7 0-13-5t-5-13l0-464z m71 71l0 36q0 7 5 13t13 5l36 0q7 0 13-5t5-13l0-36q0-7-5-13t-13-5l-36 0q-7 0-13 5t-5 13z m0 143l0 36q0 7 5 13t13 5l36 0q7 0 13-5t5-13l0-36q0-7-5-13t-13-5l-36 0q-7 0-13 5t-5 13z m0 143l0 36q0 7 5 13t13 5l36 0q7 0 13-5t5-13l0-36q0-7-5-13t-13-5l-36 0q-7 0-13 5t-5 13z m143-286l0 36q0 7 5 13t13 5l536 0q7 0 13-5t5-13l0-36q0-7-5-13t-13-5l-536 0q-7 0-13 5t-5 13z m0 143l0 36q0 7 5 13t13 5l536 0q7 0 13-5t5-13l0-36q0-7-5-13t-13-5l-536 0q-7 0-13 5t-5 13z m0 143l0 36q0 7 5 13t13 5l536 0q7 0 13-5t5-13l0-36q0-7-5-13t-13-5l-536 0q-7 0-13 5t-5 13z" horiz-adv-x="1000" />
<glyph glyph-name="qrcode" unicode="&#xe8bf;" d="M0-7l0 357 357 0 0-357-357 0z m0 429l0 357 357 0 0-357-357 0z m71-357l214 0 0 214-214 0 0-214z m0 428l214 0 0 214-214 0 0-214z m71-357l0 71 71 0 0-71-71 0z m0 429l0 71 71 0 0-71-71 0z m286-571l0 357 214 0 0-71 71 0 0 71 71 0 0-214-214 0 0 71-71 0 0-214-71 0z m0 429l0 357 357 0 0-357-357 0z m71 71l214 0 0 214-214 0 0-214z m71-500l0 71 71 0 0-71-71 0z m0 571l0 71 71 0 0-71-71 0z m143-571l0 71 71 0 0-71-71 0z" horiz-adv-x="785.714" />
<glyph glyph-name="barcode" unicode="&#xe8be;" d="M0-79l0 857 143 0 0-857-143 0z m179 0l0 857 71 0 0-857-71 0z m107 0l0 857 36 0 0-857-36 0z m54 0l0 857 36 0 0-857-36 0z m89 0l0 857 71 0 0-857-71 0z m143 0l0 857 143 0 0-857-143 0z m179 0l0 857 36 0 0-857-36 0z m89 0l0 857 36 0 0-857-36 0z m89 0l0 857 71 0 0-857-71 0z" horiz-adv-x="1000" />
<glyph glyph-name="ajust" unicode="&#xe8bc;" d="M0 350q0 117 57 215t156 156 215 57 215-57 156-156 57-215-57-215-156-156-215-57-215 57-156 156-57 215z m143 0q0-58 23-111t61-91 91-61 111-23l0 571q-58 0-111-23t-91-61-61-91-23-111z" horiz-adv-x="857.143" />
<glyph glyph-name="tint" unicode="&#xe8ba;" d="M0 279q0 81 45 153 3 5 35 50t56 84 56 99 46 112q5 17 19 26t28 9 29-9 19-26q16-52 46-112t56-99 56-84 35-50q45-71 45-153 0-118-84-202t-202-84-202 84-84 202z m143-71q0-30 21-50t50-21 50 21 21 50q0 20-11 39-1 1-9 13t-14 21-14 25-12 28q-2 9-12 9t-12-9q-4-13-12-28t-14-25-14-21-9-13q-11-18-11-39z" horiz-adv-x="571.429" />
<glyph glyph-name="magnet" unicode="&#xe8cc;" d="M0 314l0 71q0 15 11 25t25 11l214 0q15 0 25-11t11-25l0-71q0-29 13-50t30-32 40-17 36-7 25-1 25 1 36 7 40 17 30 32 13 50l0 71q0 15 11 25t25 11l214 0q15 0 25-11t11-25l0-71q0-112-55-202t-153-140-221-50-221 50-153 140-55 202z m0 214l0 214q0 15 11 25t25 11l214 0q15 0 25-11t11-25l0-214q0-15-11-25t-25-11l-214 0q-15 0-25 11t-11 25z m571 0l0 214q0 15 11 25t25 11l214 0q15 0 25-11t11-25l0-214q0-15-11-25t-25-11l-214 0q-15 0-25 11t-11 25z" horiz-adv-x="857.143" />
<glyph glyph-name="spin1" unicode="&#xe8ff;" d="M496 850c-176 0-331-90-421-226-18-27-33-55-45-85-12-29-22-60-28-92 0 0 0-1 0-1 0-1 0-2 0-2 0-6 5-12 12-12l101 0c5 0 10 3 11 9 29 113 109 206 213 254 20 9 42 17 64 22 30 8 62 12 94 12 25 0 50-3 75-7 5-1 9-2 14-3s10-2 14-4c5-1 10 1 13 5l50 87c1 1 1 2 1 3 2 6-1 13-7 15-21 7-43 13-65 17-4 1-9 2-13 2-27 4-54 7-82 7z m327-114c-4 0-8-2-10-6l-50-87c-3-5-2-11 2-15 30-29 55-63 74-100 4-7 7-15 10-22 20-46 31-97 31-151 0-77-23-149-62-209-8-12-16-23-25-34s-18-21-28-30c-4-4-5-9-2-14l50-87c0-1 1-2 2-2 4-5 12-5 16-1 58 52 104 117 134 190 6 14 11 29 15 44 14 46 21 94 21 144 0 108-34 209-92 291-11 16-23 31-37 46-13 15-27 28-41 41-1 1-1 1-2 1-2 1-4 1-6 2z m-811-468c-1 0-2 0-2 0-6-1-10-7-9-14 34-166 149-302 302-366 30-12 61-22 93-28s66-10 100-10c40 0 79 5 117 14 7 2 14 4 22 6 7 2 14 4 21 7 1 0 2 1 3 1 6 3 7 10 4 16l-50 87c-3 4-8 7-13 5-14-4-28-7-42-9-3 0-5-1-8-1-17-2-35-4-52-4-128 0-242 63-312 160 0 0 0 0 0 1-14 19-25 39-35 60s-18 43-24 66c-1 6-6 10-12 10l-101 0z" horiz-adv-x="1000" />
<glyph glyph-name="spin2" unicode="&#xe8fd;" d="M46 144s0 0 0 1c-8 18-15 36-21 55s-11 38-15 57c-19 99-9 204 35 298 3 6 10 8 15 5 1 0 1-1 2-1l80-59c5-3 6-10 4-15-5-12-9-25-12-37-4-13-6-26-8-39-11-68-3-137 22-201 2-5 0-11-4-13l-80-56c-5-4-12-2-16 3 0 1-1 1-1 2z m120 575s0 0 1 0c15 13 30 26 46 37 16 12 33 22 50 32 89 49 193 71 297 60 6-1 11-6 10-13 0-1 0-2-1-2l-32-93c-2-6-7-9-13-8-13 1-26 1-40 0s-27-2-40-4c-68-11-133-40-186-83-4-3-10-3-14 0l-78 58c-5 4-6 11-2 16 0 1 1 1 2 2z m589 65s0 0 1 0c17-10 34-20 50-32s31-24 46-38c75-69 128-160 149-262 1-6-3-12-9-13-1 0-2 0-2 0l-99 1c-6 0-11 4-12 10-3 13-7 25-12 37-5 13-10 25-16 37-31 61-79 113-137 150-5 3-6 8-5 13l31 92c2 6 9 9 15 7 1 0 1-1 2-1z m244-535s0 0 0-1c-4-19-9-38-15-57s-14-37-22-55c-43-92-114-170-205-221-6-3-13-1-16 5 0 1-1 1-1 2l-30 94c-2 6 1 11 6 14 11 7 22 15 32 23 11 8 21 17 30 27 49 48 84 109 101 176 1 5 6 9 11 9l98-1c6 0 11-5 11-12 0-1 0-2 0-2z m-438-395s0 0-1 0c-20-2-40-3-59-3-20 0-40 1-60 4-101 12-198 55-276 125-5 4-5 11 0 16 1 1 1 1 2 2l81 57c5 3 11 3 15-1 10-8 21-16 32-23s23-14 35-20c61-31 131-45 200-41 5 0 10-3 12-8l29-92c2-6-2-12-8-14-1 0-1 0-2 0z" horiz-adv-x="1000" />
<glyph glyph-name="spin3" unicode="&#xe900;" d="M494 850c-266 0-482-210-494-473-1-18 13-19 13-19l84 0c16 0 19 9 20 18 9 199 175 358 377 358 108 0 205-45 274-118l-59-57c-10-12-10-27 5-32l247-50c21-5 46 11 38 44l-58 228c-1 9-16 22-29 12l-64-60c-90 92-215 148-353 148z m410-509c-16 0-19-9-20-18-9-199-175-358-377-358-108 0-205 45-274 118l59 57c10 12 10 27-5 32l-247 50c-21 5-46-11-38-44l58-228c1-9 16-22 29-12l64 60c90-92 215-148 353-148 266 0 482 210 494 473 1 18-13 19-13 19l-84 0z" horiz-adv-x="1000" />
<glyph glyph-name="spin4" unicode="&#xe8fc;" d="M498 850c-114 0-227-39-320-116 173 140 427 130 588-31 134-134 163-333 89-495-10-29-6-50 12-68 21-21 61-23 84 0 3 3 12 14 15 24 71 180 33 393-112 539-98 98-227 147-356 147z m-408-274c-15 0-29-6-40-16-3-3-12-14-15-24-71-180-33-393 112-539 185-185 479-195 676-31-173-140-427-130-588 31-134 134-163 333-89 495 10 29 6 50-12 68-11 11-27 17-44 16z" horiz-adv-x="1001" />
<glyph glyph-name="spin5" unicode="&#xe8fe;" d="M462 850c-6 0-12-5-12-12l0-182c0-6 5-12 12-12l69 0s1 0 1 0c6 0 12 5 12 12l0 182c0 6-5 12-12 12l-69 0s-1 0-1 0z m250-47c-4 0-8-2-10-6l-91-158c-3-6-1-13 4-16l60-35s0 0 1 0c6-3 13-1 16 4l91 158c3 6 1 13-4 16l-61 35c-2 1-4 1-5 2z m-428-3c-2 0-4-1-5-2l-61-35c-5-3-7-10-4-16l91-157s0 0 0-1c3-6 10-7 16-4l61 35c5 3 7 10 4 16l-91 157s0 0 0 1c-2 4-6 6-10 6z m620-162c-2 0-4-1-5-2l-157-91s0 0-1 0c-6-3-7-10-4-16l35-61c3-5 10-7 16-4l157 91s0 0 1 0c6 3 7 10 4 16l-35 61c-2 4-6 6-10 6z m-810-5c-4 0-8-2-10-6l-35-61c-3-6-1-13 4-16l158-91c6-3 13-1 16 4l35 60s0 0 0 1c3 6 1 13-4 16l-158 91c-2 1-4 1-5 2z m713-234c-6 0-12-5-12-12l0-69s0-1 0-1c0-6 5-12 12-12l182 0c6 0 12 5 12 12l0 69s0 1 0 1c0 6-5 12-12 12l-182 0z m-795-5c-6 0-12-5-12-12l0-69s0-1 0-1c0-6 5-12 12-12l182 0c6 0 12 5 12 12l0 69s0 1 0 1c0 6-5 12-12 12l-182 0z m773-153c-4 0-8-2-10-6l-35-60s0 0 0-1c-3-6-1-13 4-16l158-91c6-3 13-1 16 4l35 61c3 6 1 13-4 16l-158 91c-2 1-4 1-5 2z m-566-5c-2 0-4-1-5-2l-157-91s0 0-1 0c-6-3-7-10-4-16l35-61c3-5 10-7 16-4l157 91s0 0 1 0c6 3 7 10 4 16l-35 61c-2 4-6 6-10 6z m467-121c-2 0-4-1-5-2l-61-35c-5-3-7-10-4-16l91-157s0 0 0-1c3-6 10-7 16-4l61 35c5 3 7 10 4 16l-91 157s0 0 0 1c-2 4-6 6-10 6z m-366-3c-4 0-8-2-10-6l-91-158c-3-6-1-13 4-16l61-35c6-3 13-1 16 4l91 158c3 6 1 13-4 16l-60 35s0 0-1 0c-2 1-4 2-5 2z m148-57c-6 0-12-5-12-12l0-182c0-6 5-12 12-12l69 0s1 0 1 0c6 0 12 5 12 12l0 182c0 6-5 12-12 12l-69 0s-1 0-1 0z" horiz-adv-x="1000" />
<glyph glyph-name="move" unicode="&#xe87a;" d="M0 350q0 15 11 25l143 143q11 11 25 11t25-11 11-25l0-71 214 0 0 214-71 0q-15 0-25 11t-11 25 11 25l143 143q11 11 25 11t25-11l143-143q11-11 11-25t-11-25-25-11l-71 0 0-214 214 0 0 71q0 15 11 25t25 11 25-11l143-143q11-11 11-25t-11-25l-143-143q-11-11-25-11t-25 11-11 25l0 71-214 0 0-214 71 0q15 0 25-11t11-25-11-25l-143-143q-11-11-25-11t-25 11l-143 143q-11 11-11 25t11 25 25 11l71 0 0 214-214 0 0-71q0-15-11-25t-25-11-25 11l-143 143q-11 11-11 25z" horiz-adv-x="1000" />
<glyph glyph-name="link-ext" unicode="&#xe81d;" d="M0 154l0 464q0 66 47 114t114 47l393 0q8 0 13-5t5-13l0-36q0-8-5-13t-13-5l-393 0q-37 0-63-26t-26-63l0-464q0-37 26-63t63-26l464 0q37 0 63 26t26 63l0 179q0 8 5 13t13 5l36 0q8 0 13-5t5-13l0-179q0-66-47-114t-114-47l-464 0q-66 0-114 47t-47 114z m382 161q0 7 6 13l364 364-98 98q-11 11-11 25t11 25 25 11l286 0q15 0 25-11t11-25l0-286q0-15-11-25t-25-11-25 11l-98 98-364-364q-6-6-13-6t-13 6l-64 64q-6 6-6 13z" horiz-adv-x="1000" />
<glyph glyph-name="check-empty" unicode="&#xe8b8;" d="M0 154l0 464q0 66 47 114t114 47l464 0q66 0 114-47t47-114l0-464q0-66-47-114t-114-47l-464 0q-66 0-114 47t-47 114z m71 0q0-37 26-63t63-26l464 0q37 0 63 26t26 63l0 464q0 37-26 63t-63 26l-464 0q-37 0-63-26t-26-63l0-464z" horiz-adv-x="928.571" />
<glyph glyph-name="bookmark-empty" unicode="&#xe830;" d="M0-3l0 719q0 19 11 35t29 23q12 5 25 5l585 0q13 0 25-5 18-7 29-23t11-35l0-719q0-19-11-35t-29-23q-11-4-25-4-27 0-46 18l-246 237-246-237q-20-18-46-18-13 0-25 5-18 7-29 23t-11 35z m71 17l236 227 50 47 50-47 236-227 0 693-571 0 0-693z" horiz-adv-x="714.286" />
<glyph glyph-name="phone-squared" unicode="&#xe852;" d="M0 82l0 536q0 66 47 114t114 47l536 0q66 0 114-47t47-114l0-536q0-66-47-114t-114-47l-536 0q-66 0-114 47t-47 114z m143 416q0-9 1-19t3-17 5-18 6-16 7-18 6-17q33-92 121-179t179-121q3-1 17-6t18-7 16-6 18-5 17-3 19-1q32 0 73 19t53 45q12 30 12 56 0 6-1 9-2 4-21 16t-49 28l-30 16q-3 2-11 7t-14 8-12 3q-10 0-26-18t-32-37-25-18q-4 0-9 2t-9 4-9 5-8 5q-55 31-95 71t-71 95q-1 2-5 8t-5 9-4 9-2 9q0 7 11 19t25 21 25 22 11 20q0 6-3 12t-8 14-7 11q-2 3-8 16t-14 25-15 27-14 23-9 10-9 1q-27 0-56-12-26-12-45-53t-19-73z" horiz-adv-x="857.143" />
<glyph glyph-name="twitter" unicode="&#xe8df;" d="M0 32q0 7 5 13t13 5q8 0 25-1t25-1q114 0 209 59-57 13-101 54t-62 97q-1 4-1 6 0 7 5 12t12 5q3 0 8-1t7-1q-50 31-79 82t-30 109q0 8 6 14t15 6q6 0 20-6t17-8q-51 61-51 143 0 28 8 60t23 53q6 9 14 9 9 0 15-7 42-47 61-64 69-62 154-99t177-45q-2 12-2 27 0 93 66 159t159 66q91 0 157-64 53 11 117 46 4 3 9 3 7 0 13-5t5-13q0-13-16-41t-28-42q4 1 17 6t24 9 13 4q7 0 13-5t5-13q0-6-3-10-36-58-100-106l0-18q2-127-56-255-75-166-222-259t-330-93q-148 0-279 68-36 18-49 28-8 7-8 15z" horiz-adv-x="1071.429" />
<glyph glyph-name="facebook" unicode="&#xe8f2;" d="M0 393l0 112q0 9 6 15t15 6l68 0 0 57q0 99 49 147t149 48q67 0 126-17 8-2 12-9t3-15l-15-109q-1-9-9-15-8-5-17-3-42 9-75 9-27 0-35-9t-7-37l0-49 121 0q9 0 15-7t6-16l-8-112q-1-8-7-14t-14-6l-113 0 0-429q0-9-6-15t-15-6l-140 0q-9 0-15 6t-6 15l0 429-68 0q-9 0-15 6t-6 15z" horiz-adv-x="428.571" />
<glyph glyph-name="github-circled" unicode="&#xe8e2;" d="M0 350q0 117 57 215t156 156 215 57 215-57 156-156 57-215-57-215-156-156-215-57-215 57-156 156-57 215z m71 0q0-117 69-211t181-129l0 94q-30-4-39-4-61 0-85 56-8 21-20 35-3 3-12 11t-16 13-7 9q0 7 16 7t29-8 21-20 18-23 23-20 32-8q23 0 45 8 9 32 35 50-93 9-137 47t-45 125q0 66 41 110-8 23-8 47 0 32 15 61 32 0 56-11t56-34q42 10 94 10 45 0 85-9 32 22 56 33t56 11q15-28 15-61 0-24-8-46 41-46 41-111 0-88-45-126t-137-47q39-26 39-73l0-126q111 35 181 129t69 211q0 73-28 139t-76 114-114 76-139 28-139-28-114-76-76-114-28-139z" horiz-adv-x="857.143" />
<glyph glyph-name="rss" unicode="&#xe840;" d="M0 100q0 45 31 76t76 31 76-31 31-76-31-76-76-31-76 31-31 76z m0 282l0 75q0 16 12 26 9 9 24 9l3 0q89-7 171-45t145-101q64-63 101-145t45-171q1-16-9-27-10-12-26-12l-75 0q-14 0-24 9t-11 23q-12 128-103 218t-218 103q-14 1-23 11t-9 24z m0 281l0 80q0 16 11 26 10 10 25 10l2 0q146-7 280-67t237-164q104-104 164-237t67-280q1-15-10-26-10-11-26-11l-80 0q-15 0-25 10t-11 24q-7 120-56 228t-129 187-187 129-228 57q-14 1-24 11t-10 24z" horiz-adv-x="785.714" />
<glyph glyph-name="hdd" unicode="&#xe8d1;" d="M0 82l0 179q0 14 9 42l110 338q9 30 35 48t56 18l436 0q31 0 56-18t35-48l110-338q9-28 9-42l0-179q0-37-26-63t-63-26l-679 0q-37 0-63 26t-26 63z m71 0q0-7 5-13t13-5l679 0q7 0 13 5t5 13l0 179q0 7-5 13t-13 5l-679 0q-7 0-13-5t-5-13l0-179z m28 268l658 0-88 269q-2 7-9 12t-15 5l-436 0q-8 0-15-5t-9-12z m392-179q0 18 13 32t32 13 32-13 13-32-13-32-32-13-32 13-13 32z m143 0q0 18 13 32t32 13 32-13 13-32-13-32-32-13-32 13-13 32z" horiz-adv-x="857.143" />
<glyph glyph-name="certificate" unicode="&#xe8d3;" d="M1 236q-6 23 11 39l77 75-77 75q-17 16-11 39 7 23 29 28l105 27-30 104q-7 23 11 39 16 17 39 11l104-30 27 105q6 23 28 28 23 7 39-11l75-78 75 78q16 17 39 11t28-28l27-105 104 30q23 7 39-11 17-16 11-39l-30-104 105-27q22-6 29-28 6-23-11-39l-77-75 77-75q17-16 11-39-7-23-29-28l-105-27 30-104q7-23-11-39-16-17-39-11l-104 30-27-105q-6-22-28-29-7-1-11-1-17 0-28 12l-75 77-75-77q-16-17-39-11t-28 29l-27 105-104-30q-23-7-39 11-17 16-11 39l30 104-105 27q-22 6-29 28z" horiz-adv-x="857.143" />
<glyph glyph-name="left-circled" unicode="&#xe884;" d="M0 350q0 117 57 215t156 156 215 57 215-57 156-156 57-215-57-215-156-156-215-57-215 57-156 156-57 215z m140 0q0-15 10-25l51-51 202-202q10-10 25-10t25 10l51 51q10 10 10 25t-10 25l-105 105 280 0q15 0 25 11t11 25l0 71q0 15-11 25t-25 11l-280 0 105 105q11 11 11 25t-11 25l-51 51q-10 10-25 10t-25-10l-202-202-51-51q-10-10-10-25z" horiz-adv-x="857.143" />
<glyph glyph-name="right-circled" unicode="&#xe885;" d="M0 350q0 117 57 215t156 156 215 57 215-57 156-156 57-215-57-215-156-156-215-57-215 57-156 156-57 215z m143-36q0-15 11-25t25-11l280 0-105-105q-11-11-11-25t11-25l51-51q10-10 25-10t25 10l202 202 51 51q10 10 10 25t-10 25l-51 51-202 202q-10 10-25 10t-25-10l-51-51q-10-10-10-25t10-25l105-105-280 0q-15 0-25-11t-11-25l0-71z" horiz-adv-x="857.143" />
<glyph glyph-name="up-circled" unicode="&#xe886;" d="M0 350q0 117 57 215t156 156 215 57 215-57 156-156 57-215-57-215-156-156-215-57-215 57-156 156-57 215z m141 1q0-15 10-25l51-51q10-10 25-10t25 10l105 105 0-280q0-15 11-25t25-11l71 0q15 0 25 11t11 25l0 280 105-105q11-11 25-11t25 11l51 51q10 10 10 25t-10 25l-202 202-51 51q-10 10-25 10t-25-10l-51-51-202-202q-10-10-10-25z" horiz-adv-x="857.143" />
<glyph glyph-name="down-circled" unicode="&#xe887;" d="M0 350q0 117 57 215t156 156 215 57 215-57 156-156 57-215-57-215-156-156-215-57-215 57-156 156-57 215z m141-1q0-15 10-25l202-202 51-51q10-10 25-10t25 10l51 51 202 202q10 10 10 25t-10 25l-51 51q-10 10-25 10t-25-10l-105-105 0 280q0 15-11 25t-25 11l-71 0q-15 0-25-11t-11-25l0-280-105 105q-11 11-25 11t-25-11l-51-51q-10-10-10-25z" horiz-adv-x="857.143" />
<glyph glyph-name="tasks" unicode="&#xe8d4;" d="M0 29l0 143q0 15 11 25t25 11l929 0q15 0 25-11t11-25l0-143q0-15-11-25t-25-11l-929 0q-15 0-25 11t-11 25z m0 286l0 143q0 15 11 25t25 11l929 0q15 0 25-11t11-25l0-143q0-15-11-25t-25-11l-929 0q-15 0-25 11t-11 25z m0 286l0 143q0 15 11 25t25 11l929 0q15 0 25-11t11-25l0-143q0-15-11-25t-25-11l-929 0q-15 0-25 11t-11 25z m357-250l571 0 0 71-571 0 0-71z m214-286l357 0 0 71-357 0 0-71z m143 571l214 0 0 71-214 0 0-71z" horiz-adv-x="1000" />
<glyph glyph-name="filter" unicode="&#xe8d5;" d="M3 685q9 22 33 22l714 0q23 0 33-22 9-23-8-39l-275-275 0-414q0-23-22-33-7-3-14-3-15 0-25 11l-143 143q-11 11-11 25l0 271-275 275q-17 16-8 39z" horiz-adv-x="785.714" />
<glyph glyph-name="resize-full-alt" unicode="&#xe863;" d="M0-43l0 250q0 23 22 33 22 9 39-8l80-80 198 198-198 198-80-80q-11-11-25-11-7 0-13 3-22 9-22 33l0 250q0 15 11 25t25 11l250 0q23 0 33-22 9-22-8-39l-80-80 198-198 198 198-80 80q-17 17-8 39t33 22l250 0q15 0 25-11t11-25l0-250q0-23-22-33-7-3-14-3-15 0-25 11l-80 80-198-198 198-198 80 80q16 17 39 8 22-9 22-33l0-250q0-15-11-25t-25-11l-250 0q-23 0-33 22-9 22 8 39l80 80-198 198-198-198 80-80q17-17 8-39t-33-22l-250 0q-15 0-25 11t-11 25z" horiz-adv-x="857.143" />
<glyph glyph-name="beaker" unicode="&#xe8d6;" d="M64-43q-19 35 12 85l281 442 0 223-36 0q-15 0-25 11t-11 25 11 25 25 11l286 0q15 0 25-11t11-25-11-25-25-11l-36 0 0-223 281-442q31-50 12-85t-78-35l-643 0q-59 0-78 35z m201 250l397 0-152 239-11 17 0 243-71 0 0-243-11-17z" horiz-adv-x="928.571" />
<glyph glyph-name="docs" unicode="&#xe845;" d="M0 118l0 375q0 22 11 49t27 42l228 228q16 16 42 27t49 11l232 0q22 0 38-16t16-38l0-183q38 22 71 22l232 0q22 0 38-16t16-38l0-679q0-22-16-38t-38-16l-536 0q-22 0-38 16t-16 38l0 161-304 0q-22 0-38 16t-16 38z m71 18l286 0 0 143q0 22 11 49t27 42l176 176 0 232-214 0 0-232q0-22-16-38t-38-16l-232 0 0-357z m47 429l167 0 0 167z m310-643l500 0 0 643-214 0 0-232q0-22-16-38t-38-16l-232 0 0-357z m47 429l167 0 0 167z" horiz-adv-x="1000" />
<glyph glyph-name="blank" unicode="&#xe8f9;" d="M0 82l0 536q0 66 47 114t114 47l536 0q66 0 114-47t47-114l0-536q0-66-47-114t-114-47l-536 0q-66 0-114 47t-47 114z" horiz-adv-x="857.143" />
<glyph glyph-name="menu" unicode="&#xe853;" d="M0 29l0 71q0 15 11 25t25 11l786 0q15 0 25-11t11-25l0-71q0-15-11-25t-25-11l-786 0q-15 0-25 11t-11 25z m0 286l0 71q0 15 11 25t25 11l786 0q15 0 25-11t11-25l0-71q0-15-11-25t-25-11l-786 0q-15 0-25 11t-11 25z m0 286l0 71q0 15 11 25t25 11l786 0q15 0 25-11t11-25l0-71q0-15-11-25t-25-11l-786 0q-15 0-25 11t-11 25z" horiz-adv-x="857.143" />
<glyph glyph-name="list-bullet" unicode="&#xe8b3;" d="M0 64q0 45 31 76t76 31 76-31 31-76-31-76-76-31-76 31-31 76z m0 286q0 45 31 76t76 31 76-31 31-76-31-76-76-31-76 31-31 76z m0 286q0 45 31 76t76 31 76-31 31-76-31-76-76-31-76 31-31 76z m286-625l0 107q0 7 5 13t13 5l679 0q7 0 13-5t5-13l0-107q0-7-5-13t-13-5l-679 0q-7 0-13 5t-5 13z m0 286l0 107q0 7 5 13t13 5l679 0q7 0 13-5t5-13l0-107q0-7-5-13t-13-5l-679 0q-7 0-13 5t-5 13z m0 286l0 107q0 7 5 13t13 5l679 0q7 0 13-5t5-13l0-107q0-7-5-13t-13-5l-679 0q-7 0-13 5t-5 13z" horiz-adv-x="1000" />
<glyph glyph-name="list-numbered" unicode="&#xe8b4;" d="M8 237q0 28 13 52t32 38 37 27 32 24 13 25q0 14-8 21t-22 8q-26 0-45-32l-47 33q13 28 40 44t59 16q41 0 69-23t28-63q0-28-19-51t-42-36-42-28-20-29l71 0 0 33 59 0 0-89-202 0q-3 20-3 30z m2-350l32 49q27-25 59-25 16 0 28 8t12 24q0 36-59 31l-15 31q4 6 18 24t24 30 21 21l0 1q-9 0-27-1t-27-1l0-30-59 0 0 85 186 0 0-49-53-64q28-7 45-27t17-49q0-45-30-70t-76-26q-59 0-96 37z m8 887l76 71 59 0 0-225 60 0 0-55-187 0 0 55 60 0q0 23 0 68t0 68l0 7-1 0q-4-9-28-30z m267-763l0 107q0 8 5 13t13 5l679 0q7 0 13-5t5-13l0-107q0-7-5-13t-13-5l-679 0q-7 0-13 5t-5 13z m0 286l0 107q0 8 5 13t13 5l679 0q7 0 13-5t5-13l0-107q0-7-5-13t-13-5l-679 0q-7 0-13 5t-5 13z m0 286l0 107q0 7 5 13t13 5l679 0q7 0 13-5t5-13l0-107q0-7-5-13t-13-5l-679 0q-7 0-13 5t-5 13z" horiz-adv-x="1000" />
<glyph glyph-name="strike" unicode="&#xe8b5;" d="M0 296l0 36q0 8 5 13t13 5l964 0q8 0 13-5t5-13l0-36q0-8-5-13t-13-5l-964 0q-8 0-13 5t-5 13z m214 239q0 101 75 172 74 71 219 71 28 0 93-11 37-7 99-27 6-21 12-66 8-69 8-102 0-10-3-25l-7-2-47 3-8 1q-28 83-57 114-49 51-117 51-64 0-102-33-37-32-37-81 0-41 37-78t156-72q39-11 97-37 32-16 53-29l-415 0q-16 20-28 45-27 54-27 105z m17-456q-1 17 0 38l1 21 0 25 57 1q8-19 17-40t13-31 7-15q20-32 45-52 24-20 59-32 33-12 74-12 36 0 78 15 43 15 68 48 26 34 26 72 0 47-45 88-19 16-76 40l229 0q4-22 4-51 0-62-23-118-13-31-40-58-21-20-61-45-45-27-85-37-45-12-113-12-64 0-109 13l-78 22q-32 9-40 16-4 4-4 12l0 7q0 60-1 87z" horiz-adv-x="1000" />
<glyph glyph-name="underline" unicode="&#xe8c9;" d="M0-25q0 8 5 13t13 5l821 0q8 0 13-5t5-13l0-36q0-8-5-13t-13-5l-821 0q-8 0-13 5t-5 13l0 36z m0 802q7 1 22 1 33 0 62-2 74-4 93-4 48 0 94 2 65 2 81 3 31 0 48 1l-1-8 1-36 0-5q-33-5-69-5-33 0-44-14-7-8-7-74 0-7 0-18t0-14l1-128 8-156q3-69 28-113 20-33 54-51 49-26 99-26 58 0 107 16 31 10 55 28 27 20 36 36 20 31 30 64 12 41 12 128 0 44-2 71t-6 68-8 89l-2 33q-3 37-13 49-19 20-43 19l-56-1-8 2 1 48 47 0 114-6q42-2 109 6l10-1q3-21 3-28 0-4-2-17-25-7-47-7-41-6-44-9-8-8-8-23 0-4 1-15t1-17q4-11 12-221 3-109-8-170-8-42-23-68-21-36-62-69-42-32-102-50-61-18-142-18-93 0-158 26-66 26-100 68t-46 109q-9 45-9 132l0 186q0 105-9 119-14 20-82 22-21 1-25 2z" horiz-adv-x="857.143" />
<glyph glyph-name="table" unicode="&#xe8c8;" d="M0 82l0 607q0 37 26 63t63 26l750 0q37 0 63-26t26-63l0-607q0-37-26-63t-63-26l-750 0q-37 0-63 26t-26 63z m71 0q0-8 5-13t13-5l179 0q8 0 13 5t5 13l0 107q0 8-5 13t-13 5l-179 0q-8 0-13-5t-5-13l0-107z m0 214q0-8 5-13t13-5l179 0q8 0 13 5t5 13l0 107q0 8-5 13t-13 5l-179 0q-8 0-13-5t-5-13l0-107z m0 214q0-8 5-13t13-5l179 0q8 0 13 5t5 13l0 107q0 8-5 13t-13 5l-179 0q-8 0-13-5t-5-13l0-107z m286-429q0-8 5-13t13-5l179 0q8 0 13 5t5 13l0 107q0 8-5 13t-13 5l-179 0q-8 0-13-5t-5-13l0-107z m0 214q0-8 5-13t13-5l179 0q8 0 13 5t5 13l0 107q0 8-5 13t-13 5l-179 0q-8 0-13-5t-5-13l0-107z m0 214q0-8 5-13t13-5l179 0q8 0 13 5t5 13l0 107q0 8-5 13t-13 5l-179 0q-8 0-13-5t-5-13l0-107z m286-429q0-8 5-13t13-5l179 0q8 0 13 5t5 13l0 107q0 8-5 13t-13 5l-179 0q-8 0-13-5t-5-13l0-107z m0 214q0-8 5-13t13-5l179 0q8 0 13 5t5 13l0 107q0 8-5 13t-13 5l-179 0q-8 0-13-5t-5-13l0-107z m0 214q0-8 5-13t13-5l179 0q8 0 13 5t5 13l0 107q0 8-5 13t-13 5l-179 0q-8 0-13-5t-5-13l0-107z" horiz-adv-x="928.571" />
<glyph glyph-name="magic" unicode="&#xe8d7;" d="M15 82q0 15 10 25l718 718q10 10 25 10t25-10l110-110q10-10 10-25t-10-25l-718-718q-10-10-25-10t-25 10l-110 110q-10 10-10 25z m56 696l55 17 17 55 17-55 55-17-55-17-17-55-17 55z m107-107l109 33 33 109 33-109 109-33-109-33-33-109-33 109z m250 107l55 17 17 55 17-55 55-17-55-17-17-55-17 55z m176-193l60-60 163 163-60 60z m181-164l55 17 17 55 17-55 55-17-55-17-17-55-17 55z" horiz-adv-x="928.571" />
<glyph glyph-name="pinterest-circled" unicode="&#xe8f5;" d="M0 350q0 117 57 215t156 156 215 57 215-57 156-156 57-215-57-215-156-156-215-57q-62 0-122 18 33 52 44 92 5 19 30 118 11-22 41-38t64-16q68 0 121 38t82 105 29 151q0 64-33 119t-96 91-142 35q-59 0-109-16t-86-43-61-62-37-72-12-75q0-58 22-102t65-62q17-7 21 11 1 4 4 17t4 17q3 13-6 24-28 34-28 84 0 84 58 145t153 61q84 0 131-46t47-119q0-95-38-161t-98-66q-34 0-55 24t-13 58q4 20 15 52t17 57 6 42q0 28-15 46t-43 18q-35 0-59-32t-24-79q0-41 14-68l-55-233q-9-39-7-99-115 51-186 157t-71 236z" horiz-adv-x="857.143" />
<glyph glyph-name="pinterest-squared" unicode="&#xe8f6;" d="M0 82l0 536q0 66 47 114t114 47l536 0q66 0 114-47t47-114l0-536q0-66-47-114t-114-47l-405 0q47 68 60 117 5 19 30 117 12-22 41-37t63-16q101 0 165 82t64 208q0 47-20 91t-54 78-85 54-110 20q-58 0-109-16t-85-43-60-61-37-71-12-74q0-57 22-100t65-61q7-3 13 0t8 11q6 25 8 34 3 13-6 23-28 35-28 84 0 84 58 143t151 59q83 0 130-45t47-117q0-94-38-160t-97-66q-33 0-54 24t-13 58q4 19 15 52t16 57 6 42q0 27-15 45t-42 18q-34 0-58-32t-24-78q0-40 13-68l-55-231q-13-56-4-142l-102 0q-66 0-114 47t-47 114z" horiz-adv-x="857.143" />
<glyph glyph-name="gplus-squared" unicode="&#xe8f7;" d="M0 109l0 242q57-66 152-66 18 0 39 3-12-34-12-48 0-37 35-83-131-4-215-47z m0 502q0 70 45 119t116 49l536 0q66 0 114-47t47-114l0-54-143 0 0 143-71 0 0-143-143 0 0-71 143 0 0-143 71 0 0 143 143 0 0-411q0-66-47-114t-114-47l-261 0q22 41 22 88 0 37-12 68t-31 52-40 40-40 33-31 30-12 33q0 20 13 38t31 34 37 36 31 52 13 73-15 81-42 66q-3 3-8 6t-7 4-6 5-6 9l75 0 75 36-244 0q-77 0-136-21t-102-74z m7-576q13 25 39 43t56 28 60 13 60 4q18 0 27-1 3-2 17-12t18-13 17-13 18-14 15-14 15-16 12-17 10-19 5-20 3-23q0-21-6-40l-212 0q-53 0-96 32t-58 82z m46 501q0 54 29 92t81 39q37 0 66-23t47-58 26-73 9-71q0-56-24-90t-78-34q-28 0-54 15t-44 38-31 52-20 58-6 55z" horiz-adv-x="857.143" />
<glyph glyph-name="gplus" unicode="&#xe8f8;" d="M0 24q0 34 21 75 18 36 54 62t81 40 86 20 84 8q-36 46-36 83 0 7 1 13t3 11 4 12 4 12q-22-3-39-3-83 0-143 55t-59 137q0 78 53 140t131 79q52 11 104 11l244 0-75-44-75 0q40-25 61-70t22-94q0-41-13-73t-31-52-37-36-31-34-13-38q0-15 9-28t24-27 33-27 36-31 33-37 24-47 9-59q0-89-78-157-85-73-234-73-33 0-67 6t-68 19-61 32-43 50-17 68z m103 26q0-38 20-68t52-47 67-25 71-8q33 0 63 7t56 22 42 41 15 61q0 12-3 23t-5 20-10 19-12 17-15 16-15 14-18 14-17 13-18 13-17 12q-9 1-28 1-30 0-59-4t-60-14-55-26-39-42-15-60z m61 558q0-26 6-55t20-58 31-52 44-38 54-15q54 0 78 34t24 90q0 33-9 71t-26 73-47 58-67 23q-52 0-80-39t-28-92z m407-44l0 71 143 0 0 143 71 0 0-143 143 0 0-71-143 0 0-143-71 0 0 143-143 0z" horiz-adv-x="928.571" />
<glyph glyph-name="money" unicode="&#xe8d9;" d="M0 29l0 643q0 15 11 25t25 11l1000 0q15 0 25-11t11-25l0-643q0-15-11-25t-25-11l-1000 0q-15 0-25 11t-11 25z m71 179q59 0 101-42t42-101l643 0q0 59 42 101t101 42l0 286q-59 0-101 42t-42 101l-643 0q0-59-42-101t-101-42l0-286z m286 143q0 39 12 79t33 75 57 56 77 22 77-22 57-56 33-75 12-79-12-79-33-75-57-56-77-22-77 22-57 56-33 75-12 79z m68 84l43-45q23 21 31 32l1 0 0-161-71 0 0-54 214 0 0 54-71 0 0 250-64 0z" horiz-adv-x="1071.429" />
<glyph glyph-name="columns" unicode="&#xe8c7;" d="M0 11l0 679q0 37 26 63t63 26l750 0q37 0 63-26t26-63l0-679q0-37-26-63t-63-26l-750 0q-37 0-63 26t-26 63z m71 0q0-7 5-13t13-5l339 0 0 643-357 0 0-625z m429-18l339 0q7 0 13 5t5 13l0 625-357 0 0-643z" horiz-adv-x="928.571" />
<glyph glyph-name="sort" unicode="&#xe8da;" d="M0 243q0 15 11 25t25 11l500 0q15 0 25-11t11-25-11-25l-250-250q-11-11-25-11t-25 11l-250 250q-11 11-11 25z m0 214q0 15 11 25l250 250q11 11 25 11t25-11l250-250q11-11 11-25t-11-25-25-11l-500 0q-15 0-25 11t-11 25z" horiz-adv-x="571.429" />
<glyph glyph-name="sort-down" unicode="&#xe8db;" d="M0 243q0 15 11 25t25 11l500 0q15 0 25-11t11-25-11-25l-250-250q-11-11-25-11t-25 11l-250 250q-11 11-11 25z" horiz-adv-x="571.429" />
<glyph glyph-name="sort-up" unicode="&#xe8dc;" d="M0 457q0 15 11 25l250 250q11 11 25 11t25-11l250-250q11-11 11-25t-11-25-25-11l-500 0q-15 0-25 11t-11 25z" horiz-adv-x="571.429" />
<glyph glyph-name="mail-alt" unicode="&#xe808;" d="M0 11l0 443q25-27 56-49 202-137 277-193 32-23 52-37t53-27 61-14l1 0q28 0 61 14t53 27 52 37q95 69 278 193 32 22 56 49l0-443q0-37-26-63t-63-26l-821 0q-37 0-63 26t-26 63z m0 595q0 44 23 73t66 29l821 0q36 0 63-26t27-63q0-44-27-84t-68-69q-210-146-261-181-6-4-24-17t-30-21-29-18-32-15-28-5l-1 0q-13 0-28 5t-32 15-29 18-30 21-24 17q-51 36-146 102t-114 80q-35 23-65 64t-31 76z" horiz-adv-x="1000" />
<glyph glyph-name="linkedin" unicode="&#xe8f4;" d="M0 665q0 39 27 66t66 27 66-27 27-66-27-66-66-27-66 27-27 66z m5-652l0 484q0 8 6 14t14 6l137 0q8 0 14-6t6-14l0-484q0-8-6-14t-14-6l-137 0q-8 0-14 6t-6 14z m251 0l0 484q0 8 6 14t14 6l133 0q7 0 12-3t6-10 2-10 0-13q52 49 137 49 95 0 150-48t54-142l0-327q0-8-6-14t-14-6l-141 0q-8 0-14 6t-6 14l0 295q0 40-15 58t-53 18q-49 0-69-29t-20-80l0-263q0-8-6-14t-14-6l-137 0q-8 0-14 6t-6 14z" horiz-adv-x="769.531" />
<glyph glyph-name="gauge" unicode="&#xe8f1;" d="M0 207q0 102 40 194t107 160 160 107 194 40 194-40 160-107 107-160 40-194q0-146-79-270-11-16-30-16l-782 0q-20 0-30 16-79 123-79 270z m71 0q0-30 21-50t50-21 50 21 21 50-21 50-50 21-50-21-21-50z m107 250q0-30 21-50t50-21 50 21 21 50-21 50-50 21-50-21-21-50z m218-330q-11-43 11-81t65-50 81 11 50 65q9 33-3 65t-40 51l56 213q3 15-4 27t-21 16-27-4-17-22l-56-213q-33-3-60-24t-35-55z m32 437q0-30 21-50t50-21 50 21 21 50-21 50-50 21-50-21-21-50z m250-107q0-30 21-50t50-21 50 21 21 50-21 50-50 21-50-21-21-50z m107-250q0-30 21-50t50-21 50 21 21 50-21 50-50 21-50-21-21-50z" horiz-adv-x="1000" />
<glyph glyph-name="comment-empty" unicode="&#xe84f;" d="M0 350q0 97 67 179t182 130 251 48 251-48 182-130 67-179-67-179-182-130-251-48q-39 0-81 4-110-98-257-135-27-8-64-12l-3 0q-8 0-15 6t-9 15l0 1q-2 2 0 7t1 6 3 5l3 5t4 5 4 5q4 4 17 19t19 21 17 22 18 28 15 33 15 42q-88 50-138 123t-50 157z m71 0q0-62 40-119t112-98l49-28-15-54q-13-51-39-96 85 35 153 95l24 21 32-3q39-4 73-4 114 0 213 39t157 105 58 142-58 142-157 105-213 39-213-39-157-105-58-142z" horiz-adv-x="1000" />
<glyph glyph-name="chat-empty" unicode="&#xe84d;" d="M0 421q0 78 52 143t143 104 197 38 197-38 143-104 52-143-52-143-143-104-197-38q-48 0-98 9-69-49-155-71-20-5-48-9l-2 0q-6 0-11 4t-6 12q-1 2-1 4t0 4 1 3l1 3t2 3 2 3 3 3 2 3q3 3 13 14t15 16 13 16 14 21 11 25q-69 40-109 99t-40 125z m71 0q0-46 30-88t83-74l54-31-20-47q19 11 35 22l25 17 30-6q44-8 85-8 85 0 160 29t118 79 44 107-44 107-118 79-160 29-160-29-118-79-44-107z m272-355q32-2 49-2 90 0 172 25t147 72q70 51 107 118t37 142q0 43-13 85 72-40 114-99t42-128q0-67-40-125t-109-98q6-13 11-25t14-21 13-16 15-16 13-14q1-1 2-3t3-3 2-3 2-3l1-3t1-3 0-4-1-4q-2-8-7-12t-12-4q-28 4-48 9-86 22-155 71-50-9-98-9-151 0-263 74z" horiz-adv-x="1000" />
<glyph glyph-name="sitemap" unicode="&#xe8f0;" d="M0-25l0 179q0 22 16 38t38 16l54 0 0 107q0 29 21 50t50 21l286 0 0 107-54 0q-22 0-38 16t-16 38l0 179q0 22 16 38t38 16l179 0q22 0 38-16t16-38l0-179q0-22-16-38t-38-16l-54 0 0-107 286 0q29 0 50-21t21-50l0-107 54 0q22 0 38-16t16-38l0-179q0-22-16-38t-38-16l-179 0q-22 0-38 16t-16 38l0 179q0 22 16 38t38 16l54 0 0 107-286 0 0-107 54 0q22 0 38-16t16-38l0-179q0-22-16-38t-38-16l-179 0q-22 0-38 16t-16 38l0 179q0 22 16 38t38 16l54 0 0 107-286 0 0-107 54 0q22 0 38-16t16-38l0-179q0-22-16-38t-38-16l-179 0q-22 0-38 16t-16 38z" horiz-adv-x="1000" />
<glyph glyph-name="paste" unicode="&#xe8c5;" d="M0 46l0 750q0 22 16 38t38 16l607 0q22 0 38-16t16-38l0-183q12-7 20-16l228-228q16-16 27-42t11-49l0-375q0-22-16-38t-38-16l-536 0q-22 0-38 16t-16 38l0 89-304 0q-22 0-38 16t-16 38z m143 679q0-7 5-13t13-5l393 0q7 0 13 5t5 13l0 36q0 7-5 13t-13 5l-393 0q-7 0-13-5t-5-13l0-36z m286-804l500 0 0 357-232 0q-22 0-38 16t-16 38l0 232-214 0 0-643z m286 429l167 0-167 167 0-167z" horiz-adv-x="1000" />
<glyph glyph-name="lightbulb" unicode="&#xe860;" d="M0 529q0 55 25 103t65 79 92 50 104 18 104-18 92-50 65-79 25-103q0-86-57-150-25-27-42-49t-33-53-19-60q26-16 26-46 0-21-14-36 14-15 14-36 0-29-25-45 7-13 7-26 0-26-18-40t-43-14q-11-25-33-39t-49-15-49 15-33 39q-26 0-43 14t-18 40q0 13 7 26-25 16-25 45 0 21 14 36-14 15-14 36 0 30 26 46-2 28-19 60t-33 53-42 49q-57 63-57 150z m71 0q0-56 38-100 6-6 17-18t17-18q71-85 79-166l127 0q7 81 79 166 6 6 17 18t17 18q38 44 38 100 0 40-19 75t-50 57-69 35-76 13-76-13-69-35-50-57-19-75z m196 71q0 7 5 13t13 5q28 0 56-9t49-30 21-50q0-7-5-13t-13-5-13 5-5 13q0 26-30 40t-59 14q-7 0-13 5t-5 13z" horiz-adv-x="571.429" />
<glyph glyph-name="exchange" unicode="&#xe88c;" d="M0 136q0 8 5 13l179 179q5 5 13 5 7 0 13-5t5-13l0-107 768 0q7 0 13-5t5-13l0-107q0-7-5-13t-13-5l-768 0 0-107q0-7-5-13t-13-5q-7 0-13 6l-178 179q-5 5-5 12z m0 304l0 107q0 7 5 13t13 5l768 0 0 107q0 8 5 13t13 5q7 0 13-6l178-178q5-5 5-13t-5-13l-179-179q-5-5-13-5-7 0-13 5t-5 13l0 107-768 0q-7 0-13 5t-5 13z" horiz-adv-x="1000" />
<glyph glyph-name="download-cloud" unicode="&#xe836;" d="M0 243q0 73 39 134t105 92q-1 17-1 24 0 118 84 202t202 84q87 0 159-49t105-129q40 35 93 35 59 0 101-42t42-101q0-42-23-77 73-17 119-76t47-133q0-89-63-151t-151-63l-607 0q-103 0-177 73t-73 177z m286 89q0-8 5-13l196-196q5-5 13-5t13 5l196 196q6 7 6 13 0 8-5 13t-13 5l-125 0 0 196q0 7-5 13t-13 5l-107 0q-7 0-13-5t-5-13l0-196-125 0q-7 0-13-5t-5-13z" horiz-adv-x="1071.429" />
<glyph glyph-name="upload-cloud" unicode="&#xe837;" d="M0 243q0 73 39 134t105 92q-1 17-1 24 0 118 84 202t202 84q87 0 159-49t105-129q40 35 93 35 59 0 101-42t42-101q0-42-23-77 73-17 119-76t47-133q0-89-63-151t-151-63l-607 0q-103 0-177 73t-73 177z m286 125q0-8 5-13t13-5l125 0 0-196q0-7 5-13t13-5l107 0q7 0 13 5t5 13l0 196 125 0q7 0 13 5t5 13q0 8-5 13l-196 196q-5 5-13 5t-13-5l-196-196q-6-7-6-13z" horiz-adv-x="1071.429" />
<glyph glyph-name="user-md" unicode="&#xe8eb;" d="M0 66q0 38 3 73t13 77 27 74 45 57 67 34q-12-29-12-67l0-113q-32-11-52-39t-20-62q0-45 31-76t76-31 76 31 31 76q0 34-20 62t-52 39l0 113q0 35 14 52 74-58 165-58t165 58q14-17 14-52l0-36q-59 0-101-42t-42-101l0-50q-18-16-18-40 0-22 16-38t38-16 38 16 16 38q0 23-18 40l0 50q0 29 21 50t50 21 50-21 21-50l0-50q-18-16-18-40 0-22 16-38t38-16 38 16 16 38q0 23-18 40l0 50q0 38-19 71t-52 52q0 6 0 24t0 27-1 23-4 26-7 22q38-8 67-34t45-57 27-74 13-77 3-73q0-68-41-106t-108-39l-488 0q-68 0-108 39t-41 106z m143 34q0 15 11 25t25 11 25-11 11-25-11-25-25-11-25 11-11 25z m36 464q0 89 63 151t151 63 151-63 63-151-63-151-151-63-151 63-63 151z" horiz-adv-x="785.714" />
<glyph glyph-name="stethoscope" unicode="&#xe8ea;" d="M0 421l0 286q0 15 11 25t25 11q3 0 9-1 9 17 26 27t36 10q30 0 50-21t21-50-21-50-50-21q-18 0-36 10l0-224q0-59 52-101t126-42 126 42 52 101l0 224q-17-10-36-10-30 0-50 21t-21 50 21 50 50 21q20 0 36-10t26-27q6 1 9 1 15 0 25-11t11-25l0-286q0-80-61-141t-153-71l0-74q0-59 52-101t126-42 126 42 52 101l0 220q-32 12-52 39t-20 62q0 45 31 76t76 31 76-31 31-76q0-35-20-62t-52-39l0-220q0-89-73-151t-177-63-177 63-73 151l0 74q-92 11-153 71t-61 141z m643 36q0-15 11-25t25-11 25 11 11 25-11 25-25 11-25-11-11-25z" horiz-adv-x="785.714" />
<glyph glyph-name="suitcase" unicode="&#xe8c3;" d="M0 46l0 464q0 51 37 88t88 37l36 0 0-714-36 0q-51 0-88 37t-37 88z m214-125l0 714 71 0 0 89q0 22 16 38t38 16l321 0q22 0 38-16t16-38l0-89 71 0 0-714-571 0z m143 714l286 0 0 71-286 0 0-71z m482-714l0 714 36 0q51 0 88-37t37-88l0-464q0-51-37-88t-88-37l-36 0z" horiz-adv-x="1000" />
<glyph glyph-name="bell-alt" unicode="&#xe84b;" d="M0 64q106 90 160 222t54 278q0 92 54 146t147 65q-4 10-4 21 0 22 16 38t38 16 38-16 16-38q0-11-4-21 94-11 147-65t54-146q0-146 54-278t160-222q0-29-21-50t-50-21l-250 0q0-59-42-101t-101-42-101 42-42 101l-250 0q-29 0-50 21t-21 50z m366-71q0-41 29-69t69-29q9 0 9 9t-9 9q-33 0-57 24t-24 57q0 9-9 9t-9-9z" horiz-adv-x="928.571" />
<glyph glyph-name="coffee" unicode="&#xe8ee;" d="M0 64l1000 0q0-59-42-101t-101-42l-714 0q-59 0-101 42t-42 101z m143 196l0 411q0 15 11 25t25 11l643 0q89 0 151-63t63-151-63-151-151-63l-36 0 0-18q0-51-37-88t-88-37l-393 0q-51 0-88 37t-37 88z m643 125l36 0q45 0 76 31t31 76-31 76-76 31l-36 0 0-214z" horiz-adv-x="1071.429" />
<glyph glyph-name="food" unicode="&#xe8ed;" d="M0 457l0 357q0 15 11 25t25 11 25-11 11-25l0-232q0-15 11-25t25-11 25 11 11 25l0 232q0 15 11 25t25 11 25-11 11-25l0-232q0-15 11-25t25-11 25 11 11 25l0 232q0 15 11 25t25 11 25-11 11-25l0-357q0-34-20-62t-52-39l0-435q0-29-21-50t-50-21l-71 0q-29 0-50 21t-21 50l0 435q-32 11-52 39t-20 62z m429-232l0 446q0 74 52 126t126 52l143 0q15 0 25-11t11-25l0-893q0-29-21-50t-50-21l-71 0q-29 0-50 21t-21 50l0 286-125 0q-7 0-13 5t-5 13z" horiz-adv-x="785.714" />
<glyph glyph-name="building" unicode="&#xe8e4;" d="M0-114l0 929q0 15 11 25t25 11l714 0q15 0 25-11t11-25l0-929q0-15-11-25t-25-11l-714 0q-15 0-25 11t-11 25z m71 36l214 0 0 125q0 7 5 13t13 5l179 0q7 0 13-5t5-13l0-125 214 0 0 857-643 0 0-857z m71 161l0 36q0 7 5 13t13 5l36 0q7 0 13-5t5-13l0-36q0-7-5-13t-13-5l-36 0q-7 0-13 5t-5 13z m0 143l0 36q0 7 5 13t13 5l36 0q7 0 13-5t5-13l0-36q0-7-5-13t-13-5l-36 0q-7 0-13 5t-5 13z m0 143l0 36q0 7 5 13t13 5l36 0q7 0 13-5t5-13l0-36q0-7-5-13t-13-5l-36 0q-7 0-13 5t-5 13z m0 143l0 36q0 7 5 13t13 5l36 0q7 0 13-5t5-13l0-36q0-7-5-13t-13-5l-36 0q-7 0-13 5t-5 13z m0 143l0 36q0 7 5 13t13 5l36 0q7 0 13-5t5-13l0-36q0-7-5-13t-13-5l-36 0q-7 0-13 5t-5 13z m143-429l0 36q0 7 5 13t13 5l36 0q7 0 13-5t5-13l0-36q0-7-5-13t-13-5l-36 0q-7 0-13 5t-5 13z m0 143l0 36q0 7 5 13t13 5l36 0q7 0 13-5t5-13l0-36q0-7-5-13t-13-5l-36 0q-7 0-13 5t-5 13z m0 143l0 36q0 7 5 13t13 5l36 0q7 0 13-5t5-13l0-36q0-7-5-13t-13-5l-36 0q-7 0-13 5t-5 13z m0 143l0 36q0 7 5 13t13 5l36 0q7 0 13-5t5-13l0-36q0-7-5-13t-13-5l-36 0q-7 0-13 5t-5 13z m143-429l0 36q0 7 5 13t13 5l36 0q7 0 13-5t5-13l0-36q0-7-5-13t-13-5l-36 0q-7 0-13 5t-5 13z m0 143l0 36q0 7 5 13t13 5l36 0q7 0 13-5t5-13l0-36q0-7-5-13t-13-5l-36 0q-7 0-13 5t-5 13z m0 143l0 36q0 7 5 13t13 5l36 0q7 0 13-5t5-13l0-36q0-7-5-13t-13-5l-36 0q-7 0-13 5t-5 13z m0 143l0 36q0 7 5 13t13 5l36 0q7 0 13-5t5-13l0-36q0-7-5-13t-13-5l-36 0q-7 0-13 5t-5 13z m143-571l0 36q0 7 5 13t13 5l36 0q7 0 13-5t5-13l0-36q0-7-5-13t-13-5l-36 0q-7 0-13 5t-5 13z m0 143l0 36q0 7 5 13t13 5l36 0q7 0 13-5t5-13l0-36q0-7-5-13t-13-5l-36 0q-7 0-13 5t-5 13z m0 143l0 36q0 7 5 13t13 5l36 0q7 0 13-5t5-13l0-36q0-7-5-13t-13-5l-36 0q-7 0-13 5t-5 13z m0 143l0 36q0 7 5 13t13 5l36 0q7 0 13-5t5-13l0-36q0-7-5-13t-13-5l-36 0q-7 0-13 5t-5 13z m0 143l0 36q0 7 5 13t13 5l36 0q7 0 13-5t5-13l0-36q0-7-5-13t-13-5l-36 0q-7 0-13 5t-5 13z" horiz-adv-x="785.714" />
<glyph glyph-name="hospital" unicode="&#xe8e5;" d="M0-114l0 714q0 15 11 25t25 11l179 0 0 161q0 22 16 38t38 16l250 0q22 0 38-16t16-38l0-161 179 0q15 0 25-11t11-25l0-714q0-15-11-25t-25-11l-714 0q-15 0-25 11t-11 25z m71 36l214 0 0 125q0 7 5 13t13 5l179 0q7 0 13-5t5-13l0-125 214 0 0 643-143 0 0-18q0-22-16-38t-38-16l-250 0q-22 0-38 16t-16 38l0 18-143 0 0-643z m71 161l0 36q0 7 5 13t13 5l36 0q7 0 13-5t5-13l0-36q0-7-5-13t-13-5l-36 0q-7 0-13 5t-5 13z m0 143l0 36q0 7 5 13t13 5l36 0q7 0 13-5t5-13l0-36q0-7-5-13t-13-5l-36 0q-7 0-13 5t-5 13z m0 143l0 36q0 7 5 13t13 5l36 0q7 0 13-5t5-13l0-36q0-7-5-13t-13-5l-36 0q-7 0-13 5t-5 13z m143-143l0 36q0 7 5 13t13 5l36 0q7 0 13-5t5-13l0-36q0-7-5-13t-13-5l-36 0q-7 0-13 5t-5 13z m0 143l0 36q0 7 5 13t13 5l36 0q7 0 13-5t5-13l0-36q0-7-5-13t-13-5l-36 0q-7 0-13 5t-5 13z m0 214q0-7 5-13t13-5l36 0q7 0 13 5t5 13l0 54 71 0 0-54q0-7 5-13t13-5l36 0q7 0 13 5t5 13l0 179q0 7-5 13t-13 5l-36 0q-7 0-13-5t-5-13l0-54-71 0 0 54q0 7-5 13t-13 5l-36 0q-7 0-13-5t-5-13l0-179z m143-357l0 36q0 7 5 13t13 5l36 0q7 0 13-5t5-13l0-36q0-7-5-13t-13-5l-36 0q-7 0-13 5t-5 13z m0 143l0 36q0 7 5 13t13 5l36 0q7 0 13-5t5-13l0-36q0-7-5-13t-13-5l-36 0q-7 0-13 5t-5 13z m143-286l0 36q0 7 5 13t13 5l36 0q7 0 13-5t5-13l0-36q0-7-5-13t-13-5l-36 0q-7 0-13 5t-5 13z m0 143l0 36q0 7 5 13t13 5l36 0q7 0 13-5t5-13l0-36q0-7-5-13t-13-5l-36 0q-7 0-13 5t-5 13z m0 143l0 36q0 7 5 13t13 5l36 0q7 0 13-5t5-13l0-36q0-7-5-13t-13-5l-36 0q-7 0-13 5t-5 13z" horiz-adv-x="785.714" />
<glyph glyph-name="ambulance" unicode="&#xe8e9;" d="M36 100q0 15 11 25t25 11l0 232q0 15 7 32t18 28l110 110q11 11 28 18t32 7l89 0 0 179q0 15 11 25t25 11l643 0q15 0 25-11t11-25l0-643q0-15-11-25t-25-11l-107 0q0-59-42-101t-101-42-101 42-42 101l-214 0q0-59-42-101t-101-42-101 42-42 101l-71 0q-15 0-25 11t-11 25z m107 250l214 0 0 143-88 0q-8-1-12-5l-109-109q-4-7-5-12l0-17z m71-286q0-30 21-50t50-21 50 21 21 50-21 50-50 21-50-21-21-50z m286 375q0-8 5-13t13-5l125 0 0-125q0-8 5-13t13-5l107 0q8 0 13 5t5 13l0 125 125 0q8 0 13 5t5 13l0 107q0 8-5 13t-13 5l-125 0 0 125q0 8-5 13t-13 5l-107 0q-8 0-13-5t-5-13l0-125-125 0q-8 0-13-5t-5-13l0-107z m214-375q0-30 21-50t50-21 50 21 21 50-21 50-50 21-50-21-21-50z" horiz-adv-x="1071.429" />
<glyph glyph-name="medkit" unicode="&#xe8e8;" d="M0 46l0 464q0 51 37 88t88 37l18 0 0-714-18 0q-51 0-88 37t-37 88z m196-125l0 714 89 0 0 89q0 22 16 38t38 16l321 0q22 0 38-16t16-38l0-89 89 0 0-714-607 0z m89 304q0-8 5-13t13-5l125 0 0-125q0-8 5-13t13-5l107 0q8 0 13 5t5 13l0 125 125 0q8 0 13 5t5 13l0 107q0 8-5 13t-13 5l-125 0 0 125q0 8-5 13t-13 5l-107 0q-8 0-13-5t-5-13l0-125-125 0q-8 0-13-5t-5-13l0-107z m71 411l286 0 0 71-286 0 0-71z m500-714l0 714 18 0q51 0 88-37t37-88l0-464q0-51-37-88t-88-37l-18 0z" horiz-adv-x="1000" />
<glyph glyph-name="fighter-jet" unicode="&#xe8a5;" d="M0 350l0 71 107 13 0 4-71 0 0 18-18 0 0 107 18 18 54 0 107-125 89 0 0 232-36 0 0 18 179 0q15 0 25-3t11-6-11-6-25-3l-39 0 163-196 36 0 125-36 196-18q146-32 160-52l1-2q-1-18-161-54l-196-18-125-36-36 0-163-196 39 0q15 0 25-3t11-6-11-6-25-3l-179 0 0 18 36 0 0 232-89 0-107-125-54 0-18 18 0 107 18 0 0 18 71 0 0 4z" horiz-adv-x="1071.429" />
<glyph glyph-name="beer" unicode="&#xe8ec;" d="M36 636l18 71 268 0 18 71 536 0 18-107-36-18 0-446 71-107 0-107-643 0 0 107 71 107-54 0q-118 0-175 57t-57 175l0 160z m179-161q0-25 1-42t4-32 8-22 13-15 19-9 25-4 32-1 40 0l0 214-143 0 0-89z" horiz-adv-x="928.571" />
<glyph glyph-name="h-sigh" unicode="&#xe8e7;" d="M0 82l0 536q0 66 47 114t114 47l536 0q66 0 114-47t47-114l0-536q0-66-47-114t-114-47l-536 0q-66 0-114 47t-47 114z m143 18q0-15 11-25t25-11l71 0q15 0 25 11t11 25l0 179 286 0 0-179q0-15 11-25t25-11l71 0q15 0 25 11t11 25l0 500q0 15-11 25t-25 11l-71 0q-15 0-25-11t-11-25l0-179-286 0 0 179q0 15-11 25t-25 11l-71 0q-15 0-25-11t-11-25l0-500z" horiz-adv-x="857.143" />
<glyph glyph-name="plus-squared" unicode="&#xe8e6;" d="M0 82l0 536q0 66 47 114t114 47l536 0q66 0 114-47t47-114l0-536q0-66-47-114t-114-47l-536 0q-66 0-114 47t-47 114z m143 232q0-15 11-25t25-11l179 0 0-179q0-15 11-25t25-11l71 0q15 0 25 11t11 25l0 179 179 0q15 0 25 11t11 25l0 71q0 15-11 25t-25 11l-179 0 0 179q0 15-11 25t-25 11l-71 0q-15 0-25-11t-11-25l0-179-179 0q-15 0-25-11t-11-25l0-71z" horiz-adv-x="857.143" />
<glyph glyph-name="angle-double-left" unicode="&#xe867;" d="M25 314q0 7 6 13l260 260q6 6 13 6t13-6l28-28q6-6 6-13t-6-13l-219-219 219-219q6-6 6-13t-6-13l-28-28q-6-6-13-6t-13 6l-260 260q-6 6-6 13z m214 0q0 7 6 13l260 260q6 6 13 6t13-6l28-28q6-6 6-13t-6-13l-219-219 219-219q6-6 6-13t-6-13l-28-28q-6-6-13-6t-13 6l-260 260q-6 6-6 13z" horiz-adv-x="571.429" />
<glyph glyph-name="angle-double-right" unicode="&#xe866;" d="M7 82q0 7 6 13l219 219-219 219q-6 6-6 13t6 13l28 28q6 6 13 6t13-6l260-260q6-6 6-13t-6-13l-260-260q-6-6-13-6t-13 6l-28 28q-6 6-6 13z m214 0q0 7 6 13l219 219-219 219q-6 6-6 13t6 13l28 28q6 6 13 6t13-6l260-260q6-6 6-13t-6-13l-260-260q-6-6-13-6t-13 6l-28 28q-6 6-6 13z" horiz-adv-x="571.429" />
<glyph glyph-name="angle-double-up" unicode="&#xe878;" d="M43 118q0 7 6 13l260 260q6 6 13 6t13-6l260-260q6-6 6-13t-6-13l-28-28q-6-6-13-6t-13 6l-219 219-219-219q-6-6-13-6t-13 6l-28 28q-6 6-6 13z m0 214q0 7 6 13l260 260q6 6 13 6t13-6l260-260q6-6 6-13t-6-13l-28-28q-6-6-13-6t-13 6l-219 219-219-219q-6-6-13-6t-13 6l-28 28q-6 6-6 13z" horiz-adv-x="642.857" />
<glyph glyph-name="angle-double-down" unicode="&#xe87b;" d="M43 368q0 7 6 13l28 28q6 6 13 6t13-6l219-219 219 219q6 6 13 6t13-6l28-28q6-6 6-13t-6-13l-260-260q-6-6-13-6t-13 6l-260 260q-6 6-6 13z m0 214q0 7 6 13l28 28q6 6 13 6t13-6l219-219 219 219q6 6 13 6t13-6l28-28q6-6 6-13t-6-13l-260-260q-6-6-13-6t-13 6l-260 260q-6 6-6 13z" horiz-adv-x="642.857" />
<glyph glyph-name="angle-left" unicode="&#xe86b;" d="M25 314q0 7 6 13l260 260q6 6 13 6t13-6l28-28q6-6 6-13t-6-13l-219-219 219-219q6-6 6-13t-6-13l-28-28q-6-6-13-6t-13 6l-260 260q-6 6-6 13z" horiz-adv-x="357.143" />
<glyph glyph-name="angle-right" unicode="&#xe86a;" d="M7 82q0 7 6 13l219 219-219 219q-6 6-6 13t6 13l28 28q6 6 13 6t13-6l260-260q6-6 6-13t-6-13l-260-260q-6-6-13-6t-13 6l-28 28q-6 6-6 13z" horiz-adv-x="357.143" />
<glyph glyph-name="angle-up" unicode="&#xe869;" d="M43 189q0 7 6 13l260 260q6 6 13 6t13-6l260-260q6-6 6-13t-6-13l-28-28q-6-6-13-6t-13 6l-219 219-219-219q-6-6-13-6t-13 6l-28 28q-6 6-6 13z" horiz-adv-x="642.857" />
<glyph glyph-name="angle-down" unicode="&#xe868;" d="M43 439q0 7 6 13l28 28q6 6 13 6t13-6l219-219 219 219q6 6 13 6t13-6l28-28q6-6 6-13t-6-13l-260-260q-6-6-13-6t-13 6l-260 260q-6 6-6 13z" horiz-adv-x="642.857" />
<glyph glyph-name="desktop" unicode="&#xe894;" d="M0 154l0 607q0 37 26 63t63 26l893 0q37 0 63-26t26-63l0-607q0-37-26-63t-63-26l-304 0q0-21 9-43t18-40 9-24q0-15-11-25t-25-11l-286 0q-15 0-25 11t-11 25q0 8 9 25t18 39 9 44l-304 0q-37 0-63 26t-26 63z m71 143q0-7 5-13t13-5l893 0q7 0 13 5t5 13l0 464q0 7-5 13t-13 5l-893 0q-7 0-13-5t-5-13l0-464z" horiz-adv-x="1071.429" />
<glyph glyph-name="laptop" unicode="&#xe893;" d="M0 46l0 54 1071 0 0-54q0-22-26-38t-63-16l-893 0q-37 0-63 16t-26 38z m143 179l0 393q0 37 26 63t63 26l607 0q37 0 63-26t26-63l0-393q0-37-26-63t-63-26l-607 0q-37 0-63 26t-26 63z m71 0q0-7 5-13t13-5l607 0q7 0 13 5t5 13l0 393q0 7-5 13t-13 5l-607 0q-7 0-13-5t-5-13l0-393z m268-170q0-9 9-9l89 0q9 0 9 9t-9 9l-89 0q-9 0-9-9z" horiz-adv-x="1071.429" />
<glyph glyph-name="tablet" unicode="&#xe892;" d="M0 82l0 607q0 37 26 63t63 26l464 0q37 0 63-26t26-63l0-607q0-37-26-63t-63-26l-464 0q-37 0-63 26t-26 63z m71 71q0-7 5-13t13-5l464 0q7 0 13 5t5 13l0 536q0 7-5 13t-13 5l-464 0q-7 0-13-5t-5-13l0-536z m214-89q0-15 11-25t25-11 25 11 11 25-11 25-25 11-25-11-11-25z" horiz-adv-x="642.857" />
<glyph glyph-name="mobile" unicode="&#xe891;" d="M0 64l0 571q0 29 21 50t50 21l286 0q29 0 50-21t21-50l0-571q0-29-21-50t-50-21l-286 0q-29 0-50 21t-21 50z m54 89q0-7 5-13t13-5l286 0q7 0 13 5t5 13l0 393q0 7-5 13t-13 5l-286 0q-7 0-13-5t-5-13l0-393z m107 473q0-9 9-9l89 0q9 0 9 9t-9 9l-89 0q-9 0-9-9z m9-562q0-18 13-32t32-13 32 13 13 32-13 32-32 13-32-13-13-32z" horiz-adv-x="428.571" />
<glyph glyph-name="circle-empty" unicode="&#xe8b7;" d="M0 350q0 117 57 215t156 156 215 57 215-57 156-156 57-215-57-215-156-156-215-57-215 57-156 156-57 215z m143 0q0-58 23-111t61-91 91-61 111-23 111 23 91 61 61 91 23 111-23 111-61 91-91 61-111 23-111-23-91-61-61-91-23-111z" horiz-adv-x="857.143" />
<glyph glyph-name="quote-left" unicode="&#xe83a;" d="M0 100l0 393q0 58 23 111t61 91 91 61 111 23l36 0q15 0 25-11t11-25l0-71q0-15-11-25t-25-11l-36 0q-59 0-101-42t-42-101l0-18q0-22 16-38t38-16l125 0q45 0 76-31t31-76l0-214q0-45-31-76t-76-31l-214 0q-45 0-76 31t-31 76z m500 0l0 393q0 58 23 111t61 91 91 61 111 23l36 0q15 0 25-11t11-25l0-71q0-15-11-25t-25-11l-36 0q-59 0-101-42t-42-101l0-18q0-22 16-38t38-16l125 0q45 0 76-31t31-76l0-214q0-45-31-76t-76-31l-214 0q-45 0-76 31t-31 76z" horiz-adv-x="928.571" />
<glyph glyph-name="quote-right" unicode="&#xe83b;" d="M0 457l0 214q0 45 31 76t76 31l214 0q45 0 76-31t31-76l0-393q0-58-23-111t-61-91-91-61-111-23l-36 0q-15 0-25 11t-11 25l0 71q0 15 11 25t25 11l36 0q59 0 101 42t42 101l0 18q0 22-16 38t-38 16l-125 0q-45 0-76 31t-31 76z m500 0l0 214q0 45 31 76t76 31l214 0q45 0 76-31t31-76l0-393q0-58-23-111t-61-91-91-61-111-23l-36 0q-15 0-25 11t-11 25l0 71q0 15 11 25t25 11l36 0q59 0 101 42t42 101l0 18q0 22-16 38t-38 16l-125 0q-45 0-76 31t-31 76z" horiz-adv-x="928.571" />
<glyph glyph-name="spinner" unicode="&#xe8ef;" d="M0 350q0 37 26 63t63 26 63-26 26-63-26-63-63-26-63 26-26 63z m98 250q0 41 29 69t69 29 69-29 29-69-29-69-69-29-69 29-29 69z m18-500q0 33 23 57t57 23q33 0 57-23t24-57-24-57-57-23q-33 0-57 23t-23 57z m223 607q0 45 31 76t76 31 76-31 31-76-31-76-76-31-76 31-31 76z m36-714q0 30 21 50t50 21 50-21 21-50-21-50-50-21-50 21-21 50z m259 107q0 26 18 44t44 18 44-18 18-44-18-44-44-18-44 18-18 44z m18 500q0 18 13 32t32 13 32-13 13-32-13-32-32-13-32 13-13 32z m98-250q0 22 16 38t38 16 38-16 16-38-16-38-38-16-38 16-16 38z" horiz-adv-x="875" />
<glyph glyph-name="circle" unicode="&#xe8bb;" d="M0 350q0 117 57 215t156 156 215 57 215-57 156-156 57-215-57-215-156-156-215-57-215 57-156 156-57 215z" horiz-adv-x="857.143" />
<glyph glyph-name="reply" unicode="&#xe838;" d="M0 493q0 15 11 25l286 286q11 11 25 11t25-11 11-25l0-143 125 0q398 0 488-225 30-75 30-186 0-93-71-252-2-4-6-13t-8-17-7-12q-7-9-16-9-8 0-13 6t-5 14q0 5 1 15t1 13q3 38 3 69 0 56-10 101t-27 77-45 56-59 39-74 24-86 12-98 3l-125 0 0-143q0-15-11-25t-25-11-25 11l-286 286q-11 11-11 25z" horiz-adv-x="1000" />
<glyph glyph-name="github" unicode="&#xe8e1;" d="M0 270q0 132 76 221-15 46-15 95 0 65 28 122 60 0 106-22t105-69q82 20 172 20 83 0 156-18 59 46 104 68t105 22q28-57 28-122 0-49-15-94 76-89 76-222 0-116-34-185-21-43-59-74t-79-48-95-27-96-12-93-3q-44 0-79 2t-82 7-85 17-76 29-68 45-48 64q-35 69-35 185z m125-98q0-49 18-86t45-57 68-33 78-16 83-4l94 0q46 0 83 4t78 16 68 33 45 57 18 86q0 67-39 114t-104 47q-23 0-109-12-40-6-88-6t-88 6q-85 12-109 12-66 0-104-47t-39-114z m89 0q0 22 7 46t24 42 40 19 40-19 24-42 7-46-7-46-24-42-40-19-40 19-24 42-7 46z m357 0q0 22 7 46t24 42 40 19 40-19 24-42 7-46-7-46-24-42-40-19-40 19-24 42-7 46z" horiz-adv-x="928.571" />
<glyph glyph-name="folder-empty" unicode="&#xe842;" d="M0 118l0 536q0 51 37 88t88 37l179 0q51 0 88-37t37-88l0-18 375 0q51 0 88-37t37-88l0-393q0-51-37-88t-88-37l-679 0q-51 0-88 37t-37 88z m71 0q0-22 16-38t38-16l679 0q22 0 38 16t16 38l0 393q0 22-16 38t-38 16l-393 0q-22 0-38 16t-16 38l0 36q0 22-16 38t-38 16l-179 0q-22 0-38-16t-16-38l0-536z" horiz-adv-x="928.571" />
<glyph glyph-name="folder-open-empty" unicode="&#xe841;" d="M0 118l0 536q0 51 37 88t88 37l179 0q51 0 88-37t37-88l0-18 304 0q51 0 88-37t37-88l0-89 107 0q30 0 55-14t37-39q8-18 8-38 0-35-26-67l-165-203q-24-30-65-49t-78-19l-607 0q-51 0-88 37t-37 88z m71 60l143 176q25 30 65 49t78 19l429 0 0 89q0 22-16 38t-38 16l-321 0q-22 0-38 16t-16 38l0 36q0 22-16 38t-38 16l-179 0q-22 0-38-16t-16-38l0-476z m24-94q0-20 30-20l607 0q22 0 48 12t40 30l164 203q10 12 10 22 0 20-30 20l-607 0q-22 0-48-12t-40-29l-164-203q-10-13-10-22z" horiz-adv-x="1071.429" />
<glyph glyph-name="github-squared" unicode="&#xe8e3;" d="M0 82l0 536q0 66 47 114t114 47l536 0q66 0 114-47t47-114l0-536q0-66-47-114t-114-47l-536 0q-66 0-114 47t-47 114z m143 32q0-33 20-55t47-28 60-7q125 0 125 104 0 27-14 44t-35 24-41 12-35 13-14 22q0 25 27 29 43 8 68 39t25 75q0 13-6 29 17 4 27 7l0 70q-44-16-75-16-28 16-61 16-48 0-81-32t-33-80q0-28 16-57t41-37l0-2q-21-9-21-47 0-29 23-43l0-2q-63-21-63-78z m70 4q0 36 55 36 57 0 57-34 0-37-52-37-60 0-60 35z m7 261q0 50 43 50 20 0 31-15t11-35q0-47-41-47-43 0-43 47z m201 211q0-20 14-35t33-15 33 15 14 35q0 20-13 35t-33 15-34-15-14-36z m9-403l76 0q-1 11-1 50l0 208q0 33 1 42l-76 0q2-15 2-44l0-210q0-31-2-46z m109 235q20 2 21 2 2 0 6 0t6 0l0-1-1 0 0-121q0-21 1-36t6-32 14-27 24-17 37-7q36 0 60 13l0 68q-17-12-38-12-30 0-30 46l0 126 29 0q5 0 15-1t15-1l0 65-59 0q0 46 2 57l-78 0q2-13 2-31l0-26-33 0 0-65z" horiz-adv-x="857.143" />
<glyph glyph-name="twitter-squared" unicode="&#xe8e0;" d="M0 82l0 536q0 66 47 114t114 47l536 0q66 0 114-47t47-114l0-536q0-66-47-114t-114-47l-536 0q-66 0-114 47t-47 114z m143 88q0-9 8-15 35-26 84-41t95-15q73 0 138 32 93 44 143 130t49 189l0 7q15 12 35 35t20 34q0 7-5 13t-13 5q-3 0-8-2 11 19 11 31 0 7-5 13t-13 5q-4 0-9-3-33-19-54-24-36 35-86 35-55 0-92-40t-36-95l0-7q-60 8-105 36t-87 78q-6 7-16 7-15 0-23-28t-8-48q0-35 16-65-7-1-12-6t-5-13q0-62 45-103-7-4-7-14 0-3 1-5 8-28 28-51t47-34q-43-24-92-24-4 0-13 1t-13 1q-7 0-13-5t-5-13z" horiz-adv-x="857.143" />
<glyph glyph-name="facebook-squared" unicode="&#xe8de;" d="M0 82l0 536q0 66 47 114t114 47l536 0q66 0 114-47t47-114l0-536q0-66-47-114t-114-47l-195 0q-1 0-1 1l0 374 99 0q17 0 18 13l7 92q1 8-4 14-6 7-13 7l-105 0 0 40q0 25 6 32t30 7q32 0 65-7 7-2 15 3 6 4 7 12l13 93q1 7-3 13t-11 8q-52 15-110 15-174 0-174-167l0-47-53 0q-7 0-13-6t-6-14l0-96q0-4 3-7t6-3 10 0l53 0 0-374 6-1-184 0q-66 0-114 47t-47 114z" horiz-adv-x="857.143" />
<glyph glyph-name="linkedin-squared" unicode="&#xe8f3;" d="M0 82l0 536q0 66 47 114t114 47l536 0q66 0 114-47t47-114l0-536q0-66-47-114t-114-47l-536 0q-66 0-114 47t-47 114z m143 0q0-7 5-13t13-5l107 0q7 0 13 5t5 13l0 357q0 7-5 13t-13 5l-107 0q-7 0-13-5t-5-13l0-357z m0 484q0-28 20-49t49-20q29 0 49 20t20 49-20 49-49 20q-28 0-49-20t-20-49z m179-484q0-7 9-13t16-5l102 0q7 0 11 5t5 13l0 195q0 78 64 78 27 0 35-13t8-41l0-219q0-7 7-13t15-5l104 0q7 0 13 5t5 13l0 243q0 71-41 107t-113 37q-50 0-88-25-7-4-8-7 0 20-20 20l-98 0q-8 0-16-4t-9-11l0-359z" horiz-adv-x="857.143" />
<glyph glyph-name="picture" unicode="&#xe812;" d="M0 11l0 679q0 37 26 63t63 26l893 0q37 0 63-26t26-63l0-679q0-37-26-63t-63-26l-893 0q-37 0-63 26t-26 63z m71 0q0-7 5-13t13-5l893 0q7 0 13 5t5 13l0 679q0 7-5 13t-13 5l-893 0q-7 0-13-5t-5-13l0-679z m71 54l0 107 179 179 89-89 286 286 232-232 0-250-786 0z m0 464q0 45 31 76t76 31 76-31 31-76-31-76-76-31-76 31-31 76z" horiz-adv-x="1071.429" />
</font>
</defs>
</svg>
